<svg width="16" height="15" viewBox="0 0 16 15" fill="none" xmlns="http://www.w3.org/2000/svg">
<g id="material-symbols:info-outline">
<path id="Vector" d="M7.375 10.625H8.625V6.875H7.375V10.625ZM8 5.625C8.17708 5.625 8.32563 5.565 8.44563 5.445C8.56563 5.325 8.62542 5.17667 8.625 5C8.625 4.82292 8.565 4.67438 8.445 4.55438C8.325 4.43438 8.17667 4.37458 8 4.375C7.82292 4.375 7.67438 4.435 7.55438 4.555C7.43438 4.675 7.37458 4.82333 7.375 5C7.375 5.17708 7.435 5.32563 7.555 5.44563C7.675 5.56563 7.82333 5.62542 8 5.625ZM8 13.75C7.13542 13.75 6.32292 13.5858 5.5625 13.2575C4.80208 12.9292 4.14063 12.484 3.57813 11.9219C3.01563 11.3594 2.57042 10.6979 2.2425 9.9375C1.91458 9.17708 1.75042 8.36458 1.75 7.5C1.75 6.63542 1.91417 5.82292 2.2425 5.0625C2.57083 4.30208 3.01604 3.64063 3.57813 3.07813C4.14063 2.51563 4.80208 2.07042 5.5625 1.7425C6.32292 1.41458 7.13542 1.25042 8 1.25C8.86458 1.25 9.67708 1.41417 10.4375 1.7425C11.1979 2.07083 11.8594 2.51604 12.4219 3.07813C12.9844 3.64063 13.4298 4.30208 13.7581 5.0625C14.0865 5.82292 14.2504 6.63542 14.25 7.5C14.25 8.36458 14.0858 9.17708 13.7575 9.9375C13.4292 10.6979 12.984 11.3594 12.4219 11.9219C11.8594 12.4844 11.1979 12.9298 10.4375 13.2581C9.67708 13.5865 8.86458 13.7504 8 13.75ZM8 12.5C9.39583 12.5 10.5781 12.0156 11.5469 11.0469C12.5156 10.0781 13 8.89583 13 7.5C13 6.10417 12.5156 4.92188 11.5469 3.95313C10.5781 2.98438 9.39583 2.5 8 2.5C6.60417 2.5 5.42188 2.98438 4.45313 3.95313C3.48438 4.92188 3 6.10417 3 7.5C3 8.89583 3.48438 10.0781 4.45313 11.0469C5.42188 12.0156 6.60417 12.5 8 12.5Z" fill="#3FA950"/>
</g>
</svg>
