<svg width="14" height="14" viewBox="0 0 14 14" fill="none" xmlns="http://www.w3.org/2000/svg">
<g id="material-symbols:info-outline">
<path id="Vector" d="M6.41675 9.91699H7.58342V6.41699H6.41675V9.91699ZM7.00008 5.25033C7.16536 5.25033 7.304 5.19433 7.416 5.08233C7.528 4.97033 7.5838 4.83188 7.58342 4.66699C7.58342 4.50171 7.52742 4.36308 7.41542 4.25108C7.30342 4.13908 7.16497 4.08327 7.00008 4.08366C6.8348 4.08366 6.69617 4.13966 6.58417 4.25166C6.47217 4.36366 6.41636 4.5021 6.41675 4.66699C6.41675 4.83227 6.47275 4.97091 6.58475 5.08291C6.69675 5.19491 6.83519 5.25071 7.00008 5.25033ZM7.00008 12.8337C6.19314 12.8337 5.4348 12.6804 4.72508 12.374C4.01536 12.0675 3.398 11.652 2.873 11.1274C2.348 10.6024 1.93247 9.98505 1.62641 9.27533C1.32036 8.5656 1.16714 7.80727 1.16675 7.00033C1.16675 6.19338 1.31997 5.43505 1.62641 4.72533C1.93286 4.0156 2.34839 3.39824 2.873 2.87324C3.398 2.34824 4.01536 1.93271 4.72508 1.62666C5.4348 1.3206 6.19314 1.16738 7.00008 1.16699C7.80703 1.16699 8.56536 1.32021 9.27508 1.62666C9.9848 1.9331 10.6022 2.34863 11.1272 2.87324C11.6522 3.39824 12.0679 4.0156 12.3743 4.72533C12.6808 5.43505 12.8338 6.19338 12.8334 7.00033C12.8334 7.80727 12.6802 8.5656 12.3737 9.27533C12.0673 9.98505 11.6518 10.6024 11.1272 11.1274C10.6022 11.6524 9.9848 12.0681 9.27508 12.3746C8.56536 12.681 7.80703 12.834 7.00008 12.8337ZM7.00008 11.667C8.30286 11.667 9.40633 11.2149 10.3105 10.3107C11.2147 9.40658 11.6667 8.3031 11.6667 7.00033C11.6667 5.69755 11.2147 4.59408 10.3105 3.68991C9.40633 2.78574 8.30286 2.33366 7.00008 2.33366C5.6973 2.33366 4.59383 2.78574 3.68966 3.68991C2.7855 4.59408 2.33341 5.69755 2.33341 7.00033C2.33341 8.3031 2.7855 9.40658 3.68966 10.3107C4.59383 11.2149 5.6973 11.667 7.00008 11.667Z" fill="#333333"/>
</g>
</svg>
