<svg width="45" height="46" viewBox="0 0 45 46" fill="none" xmlns="http://www.w3.org/2000/svg">
<path d="M16.1934 17.0758L21.1945 8.8221C21.358 8.55772 21.5533 8.37319 21.7805 8.2685C22.0077 8.16413 22.2475 8.11194 22.5 8.11194C22.7525 8.11194 22.9924 8.16413 23.2195 8.2685C23.4467 8.37319 23.642 8.55772 23.8055 8.8221L28.8066 17.0758C28.97 17.3283 29.0517 17.5933 29.0517 17.8708C29.0517 18.1487 28.9856 18.4041 28.8534 18.6372C28.7213 18.8704 28.5433 19.0547 28.3195 19.1904C28.0961 19.3263 27.8353 19.3943 27.5372 19.3943H17.4628C17.1619 19.3943 16.8986 19.3249 16.673 19.1862C16.4474 19.0474 16.2719 18.8644 16.1466 18.6372C16.0144 18.4116 15.9483 18.1612 15.9483 17.8858C15.9483 17.6102 16.03 17.3402 16.1934 17.0758ZM32.8125 40.0193C30.8534 40.0193 29.1978 39.3432 27.8456 37.991C26.4934 36.6388 25.8174 34.9832 25.8174 33.0241C25.8174 31.0651 26.4934 29.4094 27.8456 28.0572C29.1978 26.7051 30.8534 26.029 32.8125 26.029C34.7716 26.029 36.4272 26.7051 37.7794 28.0572C39.1316 29.4094 39.8077 31.0651 39.8077 33.0241C39.8077 34.9832 39.1316 36.6388 37.7794 37.991C36.4272 39.3432 34.7716 40.0193 32.8125 40.0193ZM7.06735 37.5663V28.4726C7.06735 28.0429 7.21251 27.6844 7.50282 27.3972C7.79345 27.1101 8.15345 26.9665 8.58282 26.9665H17.6766C18.1063 26.9665 18.4647 27.1116 18.7519 27.4019C19.0391 27.6926 19.1827 28.0526 19.1827 28.4819V37.5757C19.1827 38.0054 19.0375 38.3638 18.7472 38.651C18.4566 38.9382 18.0966 39.0818 17.6672 39.0818H8.57345C8.14376 39.0818 7.78532 38.9366 7.49813 38.6463C7.21095 38.3557 7.06735 37.9957 7.06735 37.5663ZM32.8116 38.1443C34.245 38.1443 35.4569 37.6494 36.4472 36.6597C37.4375 35.6701 37.9327 34.4585 37.9327 33.0251C37.9327 31.5916 37.4378 30.3797 36.4481 29.3894C35.4584 28.3991 34.2469 27.904 32.8134 27.904C31.38 27.904 30.1681 28.3988 29.1778 29.3885C28.1875 30.3782 27.6924 31.5897 27.6924 33.0232C27.6924 34.4566 28.1872 35.6685 29.1769 36.6588C30.1666 37.6491 31.3781 38.1443 32.8116 38.1443ZM8.94235 37.2068H17.3077V28.8415H8.94235V37.2068ZM18.0506 17.5193H26.9494L22.5 10.3873L18.0506 17.5193Z" fill="#333333"/>
</svg>
