<svg xmlns="http://www.w3.org/2000/svg" height="24" viewBox="0 96 960 960" width="24"><path d="M512.462 752.076 596 688.23l83.538 63.846-30.923-103.615 83.922-67.845H628.923L596 479.001l-32.923 101.615H459.463l83.922 67.845-30.923 103.615ZM172.309 875.999q-30.308 0-51.308-21t-21-51.308V363.694q0-30.307 21-51.307 21-21 51.308-21h243.077L480 356.001h307.691q30.308 0 51.308 21t21 51.308v375.382q0 30.308-21 51.308t-51.308 21H172.309ZM160 363.694v439.997q0 5.385 3.462 8.847 3.462 3.462 8.847 3.462h615.382q5.385 0 8.847-3.462 3.462-3.462 3.462-8.847V428.309q0-5.385-3.462-8.847-3.462-3.462-8.847-3.462H455.462l-64.614-64.614H172.309q-5.385 0-8.847 3.462-3.462 3.461-3.462 8.846Zm0 0v-12.308V816 363.694Z"/></svg>