<svg xmlns="http://www.w3.org/2000/svg" height="24" viewBox="0 96 960 960" width="24"><path d="M142.309 835.999q-29.826 0-51.067-21.241-21.24-21.24-21.24-51.067V388.309q0-29.827 21.24-51.067 21.241-21.241 51.067-21.241h375.383q29.827 0 51.067 21.241 21.24 21.24 21.24 51.067v375.382q0 29.827-21.24 51.067-21.24 21.241-51.067 21.241H142.309ZM706.343 536q-15.652 0-25.998-10.346-10.346-10.346-10.346-25.998V352.345q0-15.651 10.346-25.997 10.346-10.347 25.998-10.347h147.311q15.652 0 25.998 10.347 10.346 10.346 10.346 25.997v147.311q0 15.652-10.346 25.998Q869.306 536 853.654 536H706.343Zm23.655-59.999h100.001V376H729.998v100.001ZM142.309 776h375.383q5.385 0 8.847-3.462 3.462-3.462 3.462-8.847V388.309q0-5.385-3.462-8.847-3.462-3.462-8.847-3.462H142.309q-5.385 0-8.846 3.462-3.462 3.462-3.462 8.847v375.382q0 5.385 3.462 8.847 3.461 3.462 8.846 3.462Zm31.538-81.923h312.307l-101.153-135-75 100-55-73-81.154 108Zm532.496 141.922q-15.652 0-25.998-10.347-10.346-10.346-10.346-25.997V652.344q0-15.652 10.346-25.998Q690.691 616 706.343 616h147.311q15.652 0 25.998 10.346 10.346 10.346 10.346 25.998v147.311q0 15.651-10.346 25.997-10.346 10.347-25.998 10.347H706.343ZM729.998 776h100.001V675.999H729.998V776Zm-599.997 0V376v400Zm599.997-299.999V376v100.001Zm0 299.999V675.999 776Z"/></svg>