<svg width="46" height="42" viewBox="0 0 46 42" fill="none" xmlns="http://www.w3.org/2000/svg">
<path d="M45.9163 18.8334C45.9163 17.7283 45.4774 16.6685 44.696 15.8871C43.9145 15.1057 42.8547 14.6667 41.7497 14.6667H28.583L30.583 5.14587C30.6247 4.93754 30.6455 4.70837 30.6455 4.47921C30.6455 3.62504 30.2913 2.83337 29.7288 2.27087L27.5205 0.083374L13.8122 13.7917C13.0413 14.5625 12.583 15.6042 12.583 16.75V37.5834C12.583 38.6884 13.022 39.7483 13.8034 40.5297C14.5848 41.3111 15.6446 41.75 16.7497 41.75H35.4997C37.2288 41.75 38.708 40.7084 39.333 39.2084L45.6247 24.5209C45.8122 24.0417 45.9163 23.5417 45.9163 23V18.8334ZM0.0830078 41.75H8.41634V16.75H0.0830078V41.75Z" fill="#02A8DF"/>
</svg>
