<svg width="46" height="42" viewBox="0 0 46 42" fill="none" xmlns="http://www.w3.org/2000/svg">
<path d="M8.41634 16.75V41.75H0.0830078V16.75H8.41634ZM16.7497 41.75C15.6446 41.75 14.5848 41.3111 13.8034 40.5297C13.022 39.7483 12.583 38.6884 12.583 37.5834V16.75C12.583 15.6042 13.0413 14.5625 13.8122 13.8125L27.5205 0.083374L29.7288 2.29171C30.2913 2.85421 30.6455 3.62504 30.6455 4.47921L30.583 5.14587L28.6038 14.6667H41.7497C42.8547 14.6667 43.9145 15.1057 44.696 15.8871C45.4774 16.6685 45.9163 17.7283 45.9163 18.8334V23C45.9163 23.5417 45.8122 24.0417 45.6247 24.5209L39.333 39.2084C38.708 40.7084 37.2288 41.75 35.4997 41.75H16.7497ZM16.7497 37.5834H35.5622L41.7497 23V18.8334H23.4372L25.7913 7.75004L16.7497 16.8125V37.5834Z" fill="black"/>
</svg>
