<svg  viewBox="0 0 50 50" fill="none" xmlns="http://www.w3.org/2000/svg">
<mask id="path-1-outside-1_219_18" maskUnits="userSpaceOnUse" x="0.0390625" y="1.27051" width="50" height="48" fill="black">
<rect fill="white" x="0.0390625" y="1.27051" width="50" height="48"/>
<path d="M17.993 18.9209H6.24006C5.65412 18.9209 5.04377 18.9697 4.45784 18.9063C4.62873 18.9307 4.80451 18.9551 4.97541 18.9746C4.81916 18.9502 4.67756 18.916 4.53108 18.8574C4.68733 18.9209 4.84358 18.9893 4.99983 19.0527C4.86311 18.9893 4.73616 18.916 4.61409 18.8232L5.00959 19.1309C4.91194 19.0479 4.82405 18.96 4.74104 18.8623L5.04866 19.2578C4.95588 19.1357 4.88264 19.0137 4.81916 18.8721C4.88264 19.0283 4.951 19.1846 5.01448 19.3408C4.95588 19.1943 4.91682 19.0527 4.89729 18.8965C4.9217 19.0674 4.94612 19.2432 4.96565 19.4141C4.91682 18.9307 4.951 18.4326 4.951 17.9492V7.46094C4.951 6.875 4.90217 6.26465 4.96565 5.67871C4.94123 5.84961 4.91682 6.02539 4.89729 6.19629C4.9217 6.04004 4.95588 5.89844 5.01448 5.75195C4.951 5.9082 4.88264 6.06445 4.81916 6.2207C4.88264 6.08398 4.95588 5.95703 5.04866 5.83496L4.74104 6.23047C4.82405 6.13281 4.91194 6.04492 5.00959 5.96191L4.61409 6.26953C4.73616 6.17676 4.85823 6.10352 4.99983 6.04004C4.84358 6.10352 4.68733 6.17187 4.53108 6.23535C4.67756 6.17676 4.81916 6.1377 4.97541 6.11816C4.80451 6.14258 4.62873 6.16699 4.45784 6.18652C4.94123 6.1377 5.43928 6.17188 5.92268 6.17188H16.411C16.9969 6.17188 17.6072 6.12305 18.1932 6.18652C18.0223 6.16211 17.8465 6.1377 17.6756 6.11816C17.8319 6.14258 17.9735 6.17676 18.1199 6.23535C17.9637 6.17187 17.8074 6.10352 17.6512 6.04004C17.7879 6.10352 17.9149 6.17676 18.0369 6.26953L17.6414 5.96191C17.7391 6.04492 17.827 6.13281 17.91 6.23047L17.6024 5.83496C17.6951 5.95703 17.7684 6.0791 17.8319 6.2207C17.7684 6.06445 17.7 5.9082 17.6365 5.75195C17.6951 5.89844 17.7342 6.04004 17.7537 6.19629C17.7293 6.02539 17.7049 5.84961 17.6854 5.67871C17.7342 6.16211 17.7 6.66016 17.7 7.14355V17.6318C17.7 18.2178 17.7489 18.8281 17.6854 19.4141C17.7098 19.2432 17.7342 19.0674 17.7537 18.8965C17.7293 19.0527 17.6951 19.1943 17.6365 19.3408C17.7 19.1846 17.7684 19.0283 17.8319 18.8721C17.7684 19.0088 17.6951 19.1357 17.6024 19.2578L17.91 18.8623C17.827 18.96 17.7391 19.0479 17.6414 19.1309L18.0369 18.8232C17.9149 18.916 17.7928 18.9893 17.6512 19.0527C17.8074 18.9893 17.9637 18.9209 18.1199 18.8574C17.9735 18.916 17.8319 18.9551 17.6756 18.9746C17.8465 18.9502 18.0223 18.9258 18.1932 18.9063C18.1297 18.916 18.0614 18.9209 17.993 18.9209C17.4852 18.9307 16.9725 19.1309 16.6112 19.4922C16.2742 19.8291 16.0155 20.3857 16.0399 20.874C16.0887 21.9141 16.8992 22.8516 17.993 22.8271C18.95 22.8076 19.868 22.4512 20.5467 21.7676C21.2108 21.1035 21.5623 20.2148 21.6014 19.2822C21.6063 19.1211 21.6014 18.9648 21.6014 18.8037V7.85645C21.6014 7.20703 21.6112 6.55762 21.6014 5.9082C21.5819 4.58008 20.8543 3.2373 19.619 2.66602C19.0721 2.41211 18.5789 2.27539 17.9637 2.27051H4.76057C3.77424 2.27051 2.80744 2.62207 2.10432 3.33008C1.39631 4.03809 1.04475 5 1.04475 5.99609V19.1943C1.04963 19.8047 1.19123 20.3076 1.44026 20.8496C2.01155 22.085 3.35432 22.8125 4.68244 22.832C6.63557 22.8564 8.58869 22.832 10.5418 22.832H17.9881C19.0086 22.832 19.9901 21.9336 19.9412 20.8789C19.9022 19.8145 19.0916 18.9209 17.993 18.9209ZM17.993 27.1729H5.28303C5.08283 27.1729 4.88264 27.168 4.68244 27.1729C3.10041 27.1973 1.77229 28.1738 1.24006 29.6533C0.971507 30.3955 1.04963 31.2842 1.04963 32.0654V44.0283C1.04963 45.0439 1.43049 46.0742 2.20198 46.7627C2.92951 47.4121 3.8133 47.7344 4.78498 47.7344H17.7781C18.4715 47.7344 19.1209 47.6074 19.7459 47.2803C20.9129 46.6748 21.6014 45.376 21.6112 44.0869V32.2998C21.6112 31.7334 21.6502 31.1475 21.5965 30.5811C21.5184 29.6826 21.1815 28.8086 20.5028 28.1836C19.8094 27.5439 18.9451 27.1924 17.993 27.1729C16.9725 27.1533 15.991 28.0859 16.0399 29.126C16.0887 30.2002 16.8992 31.0547 17.993 31.0791C18.0614 31.0791 18.1297 31.084 18.1981 31.0937C18.0272 31.0693 17.8514 31.0449 17.6805 31.0254C17.8367 31.0498 17.9783 31.084 18.1248 31.1426C17.9686 31.0791 17.8123 31.0107 17.6561 30.9473C17.7928 31.0107 17.9197 31.084 18.0418 31.1768L17.6463 30.8691C17.744 30.9521 17.8319 31.04 17.9149 31.1377L17.6072 30.7422C17.7 30.8643 17.7733 30.9863 17.8367 31.1279C17.7733 30.9717 17.7049 30.8154 17.6414 30.6592C17.7 30.8057 17.7391 30.9473 17.7586 31.1035C17.7342 30.9326 17.7098 30.7568 17.6903 30.5859C17.7391 31.0693 17.7049 31.5674 17.7049 32.0508V42.5391C17.7049 43.125 17.7537 43.7354 17.6903 44.3213C17.7147 44.1504 17.7391 43.9746 17.7586 43.8037C17.7342 43.96 17.7 44.1016 17.6414 44.248C17.7049 44.0918 17.7733 43.9355 17.8367 43.7793C17.7733 43.916 17.7 44.043 17.6072 44.165L17.9149 43.7695C17.8319 43.8672 17.744 43.9551 17.6463 44.0381L18.0418 43.7305C17.9197 43.8232 17.7977 43.8965 17.6561 43.96C17.8123 43.8965 17.9686 43.8281 18.1248 43.7646C17.9783 43.8232 17.8367 43.8623 17.6805 43.8818C17.8514 43.8574 18.0272 43.833 18.1981 43.8135C17.7147 43.8623 17.2166 43.8281 16.7332 43.8281H6.24494C5.65901 43.8281 5.04866 43.877 4.46272 43.8135C4.63362 43.8379 4.8094 43.8623 4.9803 43.8818C4.82405 43.8574 4.68244 43.8232 4.53596 43.7646C4.69221 43.8281 4.84846 43.8965 5.00471 43.96C4.86799 43.8965 4.74104 43.8232 4.61897 43.7305L5.01448 44.0381C4.91682 43.9551 4.82893 43.8672 4.74592 43.7695L5.05354 44.165C4.96076 44.043 4.88752 43.9209 4.82405 43.7793C4.88752 43.9355 4.95588 44.0918 5.01936 44.248C4.96076 44.1016 4.9217 43.96 4.90217 43.8037C4.92659 43.9746 4.951 44.1504 4.97053 44.3213C4.9217 43.8379 4.95588 43.3398 4.95588 42.8564V32.3682C4.95588 31.7822 4.90705 31.1719 4.97053 30.5859C4.94612 30.7568 4.9217 30.9326 4.90217 31.1035C4.92659 30.9473 4.96076 30.8057 5.01936 30.6592C4.95588 30.8154 4.88752 30.9717 4.82405 31.1279C4.88752 30.9912 4.96076 30.8643 5.05354 30.7422L4.74592 31.1377C4.82893 31.04 4.91682 30.9521 5.01448 30.8691L4.61897 31.1768C4.74104 31.084 4.86311 31.0107 5.00471 30.9473C4.84846 31.0107 4.69221 31.0791 4.53596 31.1426C4.68244 31.084 4.82405 31.0449 4.9803 31.0254C4.8094 31.0498 4.63362 31.0742 4.46272 31.0937C4.94612 31.0449 5.44416 31.0791 5.92756 31.0791H17.9979C19.0184 31.0791 19.9998 30.1807 19.951 29.126C19.9022 28.0664 19.0916 27.1729 17.993 27.1729ZM26.7528 10H44.5018C45.3221 10 46.1424 10.0146 46.9627 10H46.9969C48.0174 10 48.9989 9.10156 48.95 8.04688C48.9012 6.9873 48.0906 6.09375 46.9969 6.09375H29.2479C28.4276 6.09375 27.6072 6.0791 26.7869 6.09375H26.7528C25.7323 6.09375 24.7508 6.99219 24.7996 8.04688C24.8436 9.10156 25.659 10 26.7528 10ZM39.3309 15.0977H26.7479C25.7274 15.0977 24.7459 15.9961 24.7947 17.0508C24.8436 18.1104 25.6541 19.0039 26.7479 19.0039H39.3309C40.3514 19.0039 41.3328 18.1055 41.284 17.0508C41.2401 15.9912 40.4295 15.0977 39.3309 15.0977ZM26.7528 34.9023H44.5018C45.3221 34.9023 46.1424 34.917 46.9627 34.9023H46.9969C48.0174 34.9023 48.9989 34.0039 48.95 32.9492C48.9012 31.8896 48.0906 30.9961 46.9969 30.9961H29.2479C28.4276 30.9961 27.6072 30.9814 26.7869 30.9961H26.7528C25.7323 30.9961 24.7508 31.8945 24.7996 32.9492C24.8436 34.0088 25.659 34.9023 26.7528 34.9023ZM39.3309 40H26.7479C25.7274 40 24.7459 40.8984 24.7947 41.9531C24.8436 43.0127 25.6541 43.9063 26.7479 43.9063H39.3309C40.3514 43.9063 41.3328 43.0078 41.284 41.9531C41.2401 40.8984 40.4295 40 39.3309 40Z"/>
</mask>
<path d="M17.993 18.9209H6.24006C5.65412 18.9209 5.04377 18.9697 4.45784 18.9063C4.62873 18.9307 4.80451 18.9551 4.97541 18.9746C4.81916 18.9502 4.67756 18.916 4.53108 18.8574C4.68733 18.9209 4.84358 18.9893 4.99983 19.0527C4.86311 18.9893 4.73616 18.916 4.61409 18.8232L5.00959 19.1309C4.91194 19.0479 4.82405 18.96 4.74104 18.8623L5.04866 19.2578C4.95588 19.1357 4.88264 19.0137 4.81916 18.8721C4.88264 19.0283 4.951 19.1846 5.01448 19.3408C4.95588 19.1943 4.91682 19.0527 4.89729 18.8965C4.9217 19.0674 4.94612 19.2432 4.96565 19.4141C4.91682 18.9307 4.951 18.4326 4.951 17.9492V7.46094C4.951 6.875 4.90217 6.26465 4.96565 5.67871C4.94123 5.84961 4.91682 6.02539 4.89729 6.19629C4.9217 6.04004 4.95588 5.89844 5.01448 5.75195C4.951 5.9082 4.88264 6.06445 4.81916 6.2207C4.88264 6.08398 4.95588 5.95703 5.04866 5.83496L4.74104 6.23047C4.82405 6.13281 4.91194 6.04492 5.00959 5.96191L4.61409 6.26953C4.73616 6.17676 4.85823 6.10352 4.99983 6.04004C4.84358 6.10352 4.68733 6.17187 4.53108 6.23535C4.67756 6.17676 4.81916 6.1377 4.97541 6.11816C4.80451 6.14258 4.62873 6.16699 4.45784 6.18652C4.94123 6.1377 5.43928 6.17188 5.92268 6.17188H16.411C16.9969 6.17188 17.6072 6.12305 18.1932 6.18652C18.0223 6.16211 17.8465 6.1377 17.6756 6.11816C17.8319 6.14258 17.9735 6.17676 18.1199 6.23535C17.9637 6.17187 17.8074 6.10352 17.6512 6.04004C17.7879 6.10352 17.9149 6.17676 18.0369 6.26953L17.6414 5.96191C17.7391 6.04492 17.827 6.13281 17.91 6.23047L17.6024 5.83496C17.6951 5.95703 17.7684 6.0791 17.8319 6.2207C17.7684 6.06445 17.7 5.9082 17.6365 5.75195C17.6951 5.89844 17.7342 6.04004 17.7537 6.19629C17.7293 6.02539 17.7049 5.84961 17.6854 5.67871C17.7342 6.16211 17.7 6.66016 17.7 7.14355V17.6318C17.7 18.2178 17.7489 18.8281 17.6854 19.4141C17.7098 19.2432 17.7342 19.0674 17.7537 18.8965C17.7293 19.0527 17.6951 19.1943 17.6365 19.3408C17.7 19.1846 17.7684 19.0283 17.8319 18.8721C17.7684 19.0088 17.6951 19.1357 17.6024 19.2578L17.91 18.8623C17.827 18.96 17.7391 19.0479 17.6414 19.1309L18.0369 18.8232C17.9149 18.916 17.7928 18.9893 17.6512 19.0527C17.8074 18.9893 17.9637 18.9209 18.1199 18.8574C17.9735 18.916 17.8319 18.9551 17.6756 18.9746C17.8465 18.9502 18.0223 18.9258 18.1932 18.9063C18.1297 18.916 18.0614 18.9209 17.993 18.9209C17.4852 18.9307 16.9725 19.1309 16.6112 19.4922C16.2742 19.8291 16.0155 20.3857 16.0399 20.874C16.0887 21.9141 16.8992 22.8516 17.993 22.8271C18.95 22.8076 19.868 22.4512 20.5467 21.7676C21.2108 21.1035 21.5623 20.2148 21.6014 19.2822C21.6063 19.1211 21.6014 18.9648 21.6014 18.8037V7.85645C21.6014 7.20703 21.6112 6.55762 21.6014 5.9082C21.5819 4.58008 20.8543 3.2373 19.619 2.66602C19.0721 2.41211 18.5789 2.27539 17.9637 2.27051H4.76057C3.77424 2.27051 2.80744 2.62207 2.10432 3.33008C1.39631 4.03809 1.04475 5 1.04475 5.99609V19.1943C1.04963 19.8047 1.19123 20.3076 1.44026 20.8496C2.01155 22.085 3.35432 22.8125 4.68244 22.832C6.63557 22.8564 8.58869 22.832 10.5418 22.832H17.9881C19.0086 22.832 19.9901 21.9336 19.9412 20.8789C19.9022 19.8145 19.0916 18.9209 17.993 18.9209ZM17.993 27.1729H5.28303C5.08283 27.1729 4.88264 27.168 4.68244 27.1729C3.10041 27.1973 1.77229 28.1738 1.24006 29.6533C0.971507 30.3955 1.04963 31.2842 1.04963 32.0654V44.0283C1.04963 45.0439 1.43049 46.0742 2.20198 46.7627C2.92951 47.4121 3.8133 47.7344 4.78498 47.7344H17.7781C18.4715 47.7344 19.1209 47.6074 19.7459 47.2803C20.9129 46.6748 21.6014 45.376 21.6112 44.0869V32.2998C21.6112 31.7334 21.6502 31.1475 21.5965 30.5811C21.5184 29.6826 21.1815 28.8086 20.5028 28.1836C19.8094 27.5439 18.9451 27.1924 17.993 27.1729C16.9725 27.1533 15.991 28.0859 16.0399 29.126C16.0887 30.2002 16.8992 31.0547 17.993 31.0791C18.0614 31.0791 18.1297 31.084 18.1981 31.0937C18.0272 31.0693 17.8514 31.0449 17.6805 31.0254C17.8367 31.0498 17.9783 31.084 18.1248 31.1426C17.9686 31.0791 17.8123 31.0107 17.6561 30.9473C17.7928 31.0107 17.9197 31.084 18.0418 31.1768L17.6463 30.8691C17.744 30.9521 17.8319 31.04 17.9149 31.1377L17.6072 30.7422C17.7 30.8643 17.7733 30.9863 17.8367 31.1279C17.7733 30.9717 17.7049 30.8154 17.6414 30.6592C17.7 30.8057 17.7391 30.9473 17.7586 31.1035C17.7342 30.9326 17.7098 30.7568 17.6903 30.5859C17.7391 31.0693 17.7049 31.5674 17.7049 32.0508V42.5391C17.7049 43.125 17.7537 43.7354 17.6903 44.3213C17.7147 44.1504 17.7391 43.9746 17.7586 43.8037C17.7342 43.96 17.7 44.1016 17.6414 44.248C17.7049 44.0918 17.7733 43.9355 17.8367 43.7793C17.7733 43.916 17.7 44.043 17.6072 44.165L17.9149 43.7695C17.8319 43.8672 17.744 43.9551 17.6463 44.0381L18.0418 43.7305C17.9197 43.8232 17.7977 43.8965 17.6561 43.96C17.8123 43.8965 17.9686 43.8281 18.1248 43.7646C17.9783 43.8232 17.8367 43.8623 17.6805 43.8818C17.8514 43.8574 18.0272 43.833 18.1981 43.8135C17.7147 43.8623 17.2166 43.8281 16.7332 43.8281H6.24494C5.65901 43.8281 5.04866 43.877 4.46272 43.8135C4.63362 43.8379 4.8094 43.8623 4.9803 43.8818C4.82405 43.8574 4.68244 43.8232 4.53596 43.7646C4.69221 43.8281 4.84846 43.8965 5.00471 43.96C4.86799 43.8965 4.74104 43.8232 4.61897 43.7305L5.01448 44.0381C4.91682 43.9551 4.82893 43.8672 4.74592 43.7695L5.05354 44.165C4.96076 44.043 4.88752 43.9209 4.82405 43.7793C4.88752 43.9355 4.95588 44.0918 5.01936 44.248C4.96076 44.1016 4.9217 43.96 4.90217 43.8037C4.92659 43.9746 4.951 44.1504 4.97053 44.3213C4.9217 43.8379 4.95588 43.3398 4.95588 42.8564V32.3682C4.95588 31.7822 4.90705 31.1719 4.97053 30.5859C4.94612 30.7568 4.9217 30.9326 4.90217 31.1035C4.92659 30.9473 4.96076 30.8057 5.01936 30.6592C4.95588 30.8154 4.88752 30.9717 4.82405 31.1279C4.88752 30.9912 4.96076 30.8643 5.05354 30.7422L4.74592 31.1377C4.82893 31.04 4.91682 30.9521 5.01448 30.8691L4.61897 31.1768C4.74104 31.084 4.86311 31.0107 5.00471 30.9473C4.84846 31.0107 4.69221 31.0791 4.53596 31.1426C4.68244 31.084 4.82405 31.0449 4.9803 31.0254C4.8094 31.0498 4.63362 31.0742 4.46272 31.0937C4.94612 31.0449 5.44416 31.0791 5.92756 31.0791H17.9979C19.0184 31.0791 19.9998 30.1807 19.951 29.126C19.9022 28.0664 19.0916 27.1729 17.993 27.1729ZM26.7528 10H44.5018C45.3221 10 46.1424 10.0146 46.9627 10H46.9969C48.0174 10 48.9989 9.10156 48.95 8.04688C48.9012 6.9873 48.0906 6.09375 46.9969 6.09375H29.2479C28.4276 6.09375 27.6072 6.0791 26.7869 6.09375H26.7528C25.7323 6.09375 24.7508 6.99219 24.7996 8.04688C24.8436 9.10156 25.659 10 26.7528 10ZM39.3309 15.0977H26.7479C25.7274 15.0977 24.7459 15.9961 24.7947 17.0508C24.8436 18.1104 25.6541 19.0039 26.7479 19.0039H39.3309C40.3514 19.0039 41.3328 18.1055 41.284 17.0508C41.2401 15.9912 40.4295 15.0977 39.3309 15.0977ZM26.7528 34.9023H44.5018C45.3221 34.9023 46.1424 34.917 46.9627 34.9023H46.9969C48.0174 34.9023 48.9989 34.0039 48.95 32.9492C48.9012 31.8896 48.0906 30.9961 46.9969 30.9961H29.2479C28.4276 30.9961 27.6072 30.9814 26.7869 30.9961H26.7528C25.7323 30.9961 24.7508 31.8945 24.7996 32.9492C24.8436 34.0088 25.659 34.9023 26.7528 34.9023ZM39.3309 40H26.7479C25.7274 40 24.7459 40.8984 24.7947 41.9531C24.8436 43.0127 25.6541 43.9063 26.7479 43.9063H39.3309C40.3514 43.9063 41.3328 43.0078 41.284 41.9531C41.2401 40.8984 40.4295 40 39.3309 40Z" fill="#E6E6E6"/>
<path d="M4.45784 18.9063L4.56554 17.9121L4.31641 19.8962L4.45784 18.9063ZM4.97541 18.9746L4.86187 19.9681L5.12979 17.9866L4.97541 18.9746ZM4.53108 18.8574L4.90247 17.9289L4.1547 19.7839L4.53108 18.8574ZM4.99983 19.0527L4.62345 19.9792L5.42094 18.1457L4.99983 19.0527ZM4.61409 18.8232L5.21917 18.0271L4.00015 19.6126L4.61409 18.8232ZM5.00959 19.1309L4.39565 19.9202L5.65724 18.3689L5.00959 19.1309ZM4.74104 18.8623L5.50298 18.2147L3.95169 19.4762L4.74104 18.8623ZM5.04866 19.2578L4.2593 19.8718L5.84482 18.6527L5.04866 19.2578ZM4.81916 18.8721L5.73167 18.463L3.8927 19.2484L4.81916 18.8721ZM5.01448 19.3408L4.08801 19.7172L5.94295 18.9694L5.01448 19.3408ZM4.89729 18.8965L5.88724 18.7551L3.90501 19.0205L4.89729 18.8965ZM4.96565 19.4141L3.97211 19.5276L5.96058 19.3136L4.96565 19.4141ZM4.96565 5.67871L5.95983 5.78641L3.9757 5.53729L4.96565 5.67871ZM4.89729 6.19629L3.90376 6.08274L5.8853 6.35067L4.89729 6.19629ZM5.01448 5.75195L5.94295 6.12334L4.08801 5.37558L5.01448 5.75195ZM4.81916 6.2207L3.8927 5.84433L5.72617 6.64181L4.81916 6.2207ZM5.04866 5.83496L5.84482 6.44004L4.2593 5.22102L5.04866 5.83496ZM4.74104 6.23047L3.95169 5.61653L5.50298 6.87812L4.74104 6.23047ZM5.00959 5.96191L5.65724 6.72385L4.39565 5.17256L5.00959 5.96191ZM4.61409 6.26953L4.00014 5.48018L5.21917 7.06569L4.61409 6.26953ZM4.99983 6.04004L5.40888 6.95255L4.62345 5.11357L4.99983 6.04004ZM4.53108 6.23535L4.1547 5.30888L4.90247 7.16383L4.53108 6.23535ZM4.97541 6.11816L5.11683 7.10811L4.85138 5.12589L4.97541 6.11816ZM4.45784 6.18652L4.34429 5.19299L4.55833 7.18146L4.45784 6.18652ZM18.1932 6.18652L18.0855 7.18071L18.3346 5.19657L18.1932 6.18652ZM17.6756 6.11816L17.7892 5.12463L17.5212 7.10618L17.6756 6.11816ZM18.1199 6.23535L17.7486 7.16383L18.4963 5.30888L18.1199 6.23535ZM17.6512 6.04004L18.0276 5.11357L17.2301 6.94705L17.6512 6.04004ZM18.0369 6.26953L17.4319 7.06569L18.6509 5.48018L18.0369 6.26953ZM17.6414 5.96191L18.2554 5.17256L16.9938 6.72385L17.6414 5.96191ZM17.91 6.23047L17.148 6.87812L18.6993 5.61653L17.91 6.23047ZM17.6024 5.83496L18.3917 5.22102L16.8062 6.44004L17.6024 5.83496ZM17.8319 6.2207L16.9193 6.62976L18.7583 5.84433L17.8319 6.2207ZM17.6365 5.75195L18.563 5.37558L16.7081 6.12334L17.6365 5.75195ZM17.7537 6.19629L16.7638 6.33771L18.746 6.07225L17.7537 6.19629ZM17.6854 5.67871L18.6789 5.56516L16.6904 5.77921L17.6854 5.67871ZM17.6854 19.4141L16.6912 19.3064L18.6753 19.5555L17.6854 19.4141ZM17.7537 18.8965L18.7473 19.01L16.7657 18.7421L17.7537 18.8965ZM17.6365 19.3408L16.7081 18.9694L18.563 19.7172L17.6365 19.3408ZM17.8319 18.8721L18.7583 19.2484L16.9249 18.451L17.8319 18.8721ZM17.6024 19.2578L16.8062 18.6527L18.3917 19.8718L17.6024 19.2578ZM17.91 18.8623L18.6993 19.4762L17.148 18.2147L17.91 18.8623ZM17.6414 19.1309L16.9938 18.3689L18.2554 19.9202L17.6414 19.1309ZM18.0369 18.8232L18.6509 19.6126L17.4319 18.0271L18.0369 18.8232ZM17.6512 19.0527L17.2421 18.1402L18.0276 19.9792L17.6512 19.0527ZM18.1199 18.8574L18.4963 19.7839L17.7486 17.9289L18.1199 18.8574ZM17.6756 18.9746L17.5342 17.9847L17.7996 19.9669L17.6756 18.9746ZM18.1932 18.9063L18.3452 19.8946L18.0796 17.9127L18.1932 18.9063ZM16.0399 20.874L17.0388 20.8271L17.0386 20.8241L16.0399 20.874ZM17.993 22.8271L17.9726 21.8274L17.9707 21.8274L17.993 22.8271ZM20.5467 21.7676L19.8396 21.0605L19.8371 21.063L20.5467 21.7676ZM21.6014 19.2822L22.6006 19.3241L22.6009 19.3125L21.6014 19.2822ZM21.6014 5.9082L20.6015 5.92291L20.6015 5.92324L21.6014 5.9082ZM19.619 2.66602L19.1979 3.57303L19.1992 3.57366L19.619 2.66602ZM17.9637 2.27051L17.9716 1.27051H17.9637V2.27051ZM2.10432 3.33008L2.81143 4.03719L2.81387 4.03473L2.10432 3.33008ZM1.04475 19.1943L0.0447171 19.1943L0.0447811 19.2023L1.04475 19.1943ZM1.44026 20.8496L0.531577 21.2671L0.532613 21.2693L1.44026 20.8496ZM4.68244 22.832L4.66774 23.8319L4.66995 23.832L4.68244 22.832ZM19.9412 20.8789L18.9419 20.9156L18.9423 20.9252L19.9412 20.8789ZM4.68244 27.1729L4.69788 28.1728L4.70683 28.1726L4.68244 27.1729ZM1.24006 29.6533L2.1804 29.9936L2.18103 29.9918L1.24006 29.6533ZM2.20198 46.7627L2.86789 46.0167L2.8678 46.0166L2.20198 46.7627ZM19.7459 47.2803L19.2854 46.3926L19.2822 46.3943L19.7459 47.2803ZM21.6112 44.0869L22.6112 44.0945V44.0869H21.6112ZM21.5965 30.5811L20.6002 30.6677L20.601 30.6755L21.5965 30.5811ZM20.5028 28.1836L19.8247 28.9186L19.8254 28.9192L20.5028 28.1836ZM16.0399 29.126L17.0388 29.0806L17.0388 29.0791L16.0399 29.126ZM17.993 31.0791L17.9707 32.0789L17.9818 32.0791H17.993V31.0791ZM17.6805 31.0254L17.794 30.0319L17.5261 32.0134L17.6805 31.0254ZM18.1248 31.1426L17.7534 32.0711L18.5012 30.2161L18.1248 31.1426ZM17.6561 30.9473L18.0325 30.0208L17.235 31.8543L17.6561 30.9473ZM18.0418 31.1768L17.4367 31.9729L18.6558 30.3874L18.0418 31.1768ZM17.6463 30.8691L18.2603 30.0798L16.9987 31.6311L17.6463 30.8691ZM17.9149 31.1377L17.1529 31.7853L18.7042 30.5238L17.9149 31.1377ZM17.6072 30.7422L18.3966 30.1282L16.8111 31.3473L17.6072 30.7422ZM17.8367 31.1279L16.9242 31.537L18.7632 30.7516L17.8367 31.1279ZM17.6414 30.6592L18.5679 30.2828L16.713 31.0306L17.6414 30.6592ZM17.7586 31.1035L16.7687 31.2449L18.7509 30.9795L17.7586 31.1035ZM17.6903 30.5859L18.6838 30.4724L16.6953 30.6864L17.6903 30.5859ZM17.6903 44.3213L16.6961 44.2136L18.6802 44.4627L17.6903 44.3213ZM17.7586 43.8037L18.7521 43.9173L16.7706 43.6493L17.7586 43.8037ZM17.6414 44.248L16.713 43.8767L18.5679 44.6244L17.6414 44.248ZM17.8367 43.7793L18.7632 44.1557L16.9297 43.3582L17.8367 43.7793ZM17.6072 44.165L16.8111 43.56L18.3966 44.779L17.6072 44.165ZM17.9149 43.7695L18.7042 44.3835L17.1529 43.1219L17.9149 43.7695ZM17.6463 44.0381L16.9987 43.2761L18.2603 44.8274L17.6463 44.0381ZM18.0418 43.7305L18.6558 44.5198L17.4367 42.9343L18.0418 43.7305ZM17.6561 43.96L17.247 43.0475L18.0325 44.8864L17.6561 43.96ZM18.1248 43.7646L18.5012 44.6911L17.7534 42.8362L18.1248 43.7646ZM17.6805 43.8818L17.5391 42.8919L17.8045 44.8741L17.6805 43.8818ZM18.1981 43.8135L18.3116 44.807L18.0976 42.8185L18.1981 43.8135ZM4.46272 43.8135L4.57042 42.8193L4.3213 44.8034L4.46272 43.8135ZM4.9803 43.8818L4.86675 44.8754L5.13467 42.8938L4.9803 43.8818ZM4.53596 43.7646L4.90735 42.8362L4.15958 44.6911L4.53596 43.7646ZM5.00471 43.96L4.62833 44.8864L5.42582 43.053L5.00471 43.96ZM4.61897 43.7305L5.22405 42.9343L4.00502 44.5198L4.61897 43.7305ZM5.01448 44.0381L4.40053 44.8274L5.66212 43.2761L5.01448 44.0381ZM4.74592 43.7695L5.50786 43.1219L3.95657 44.3835L4.74592 43.7695ZM5.05354 44.165L4.26419 44.779L5.8497 43.56L5.05354 44.165ZM4.82405 43.7793L5.73656 43.3702L3.89758 44.1557L4.82405 43.7793ZM5.01936 44.248L4.09289 44.6244L5.94784 43.8767L5.01936 44.248ZM4.90217 43.8037L5.89212 43.6623L3.90989 43.9277L4.90217 43.8037ZM4.97053 44.3213L3.977 44.4348L5.96547 44.2208L4.97053 44.3213ZM4.97053 30.5859L5.96471 30.6936L3.98058 30.4445L4.97053 30.5859ZM4.90217 31.1035L3.90864 30.99L5.89018 31.2579L4.90217 31.1035ZM5.01936 30.6592L5.94784 31.0306L4.09289 30.2828L5.01936 30.6592ZM4.82405 31.1279L3.89758 30.7516L5.73106 31.549L4.82405 31.1279ZM5.05354 30.7422L5.8497 31.3473L4.26418 30.1282L5.05354 30.7422ZM4.74592 31.1377L3.95657 30.5238L5.50786 31.7853L4.74592 31.1377ZM5.01448 30.8691L5.66212 31.6311L4.40054 30.0798L5.01448 30.8691ZM4.61897 31.1768L4.00503 30.3874L5.22405 31.9729L4.61897 31.1768ZM5.00471 30.9473L5.41377 31.8598L4.62833 30.0208L5.00471 30.9473ZM4.53596 31.1426L4.15958 30.2161L4.90735 32.0711L4.53596 31.1426ZM4.9803 31.0254L5.12172 32.0153L4.85626 30.0331L4.9803 31.0254ZM4.46272 31.0937L4.34917 30.1002L4.56322 32.0887L4.46272 31.0937ZM19.951 29.126L18.9521 29.172L18.9521 29.1722L19.951 29.126ZM46.9627 10V9H46.9538L46.9449 9.00016L46.9627 10ZM48.95 8.04688L47.9511 8.09291L47.9511 8.09312L48.95 8.04688ZM26.7869 6.09375V7.09375H26.7959L26.8048 7.09359L26.7869 6.09375ZM24.7996 8.04688L25.7988 8.00524L25.7986 8.00063L24.7996 8.04688ZM24.7947 17.0508L25.7937 17.0047L25.7937 17.0045L24.7947 17.0508ZM41.284 17.0508L40.2849 17.0922L40.2851 17.097L41.284 17.0508ZM46.9627 34.9023V33.9023H46.9538L46.9449 33.9025L46.9627 34.9023ZM48.95 32.9492L47.9511 32.9953L47.9511 32.9955L48.95 32.9492ZM26.7869 30.9961V31.9961H26.7959L26.8048 31.9959L26.7869 30.9961ZM24.7996 32.9492L25.7988 32.9078L25.7986 32.903L24.7996 32.9492ZM24.7947 41.9531L25.7937 41.9071L25.7937 41.9069L24.7947 41.9531ZM41.284 41.9531L40.2849 41.9948L40.2851 41.9994L41.284 41.9531ZM17.993 17.9209H6.24006V19.9209H17.993V17.9209ZM6.24006 17.9209C5.54151 17.9209 5.08239 17.9681 4.56554 17.9121L4.35013 19.9004C5.00515 19.9714 5.76674 19.9209 6.24006 19.9209V17.9209ZM4.31641 19.8962C4.48851 19.9208 4.67607 19.9469 4.86187 19.9681L5.08896 17.9811C4.93296 17.9632 4.76896 17.9405 4.59926 17.9163L4.31641 19.8962ZM5.12979 17.9866C5.02677 17.9705 4.96169 17.9526 4.90247 17.9289L4.15969 19.7859C4.39343 19.8794 4.61156 19.9299 4.82104 19.9626L5.12979 17.9866ZM4.1547 19.7839C4.22561 19.8127 4.29758 19.843 4.37675 19.8764C4.45383 19.909 4.53811 19.9445 4.62345 19.9792L5.3762 18.1263C5.3053 18.0975 5.23333 18.0671 5.15415 18.0337C5.07708 18.0012 4.9928 17.9656 4.90745 17.931L4.1547 19.7839ZM5.42094 18.1457C5.3381 18.1073 5.27498 18.0695 5.21917 18.0271L4.009 19.6194C4.19733 19.7625 4.38812 19.8713 4.57872 19.9597L5.42094 18.1457ZM4.00015 19.6126L4.39565 19.9202L5.62353 18.3415L5.22802 18.0339L4.00015 19.6126ZM5.65724 18.3689C5.6007 18.3209 5.55103 18.2712 5.50298 18.2147L3.9791 19.51C4.09706 19.6487 4.22317 19.7748 4.36194 19.8928L5.65724 18.3689ZM3.95169 19.4762L4.2593 19.8718L5.83801 18.6439L5.53039 18.2484L3.95169 19.4762ZM5.84482 18.6527C5.79658 18.5893 5.76291 18.5327 5.73167 18.463L3.90665 19.2811C4.00237 19.4947 4.11518 19.6822 4.25249 19.8629L5.84482 18.6527ZM3.8927 19.2484C3.92737 19.3338 3.96294 19.4181 3.99545 19.4951C4.02886 19.5743 4.0592 19.6463 4.08801 19.7172L5.94094 18.9644C5.90627 18.8791 5.8707 18.7948 5.83818 18.7177C5.80478 18.6386 5.77444 18.5666 5.74563 18.4957L3.8927 19.2484ZM5.94295 18.9694C5.9119 18.8918 5.89717 18.8333 5.88957 18.7724L3.90501 19.0205C3.93647 19.2722 3.99986 19.4969 4.086 19.7122L5.94295 18.9694ZM3.90734 19.0379C3.93158 19.2076 3.95429 19.3716 3.97211 19.5276L5.95918 19.3005C5.93795 19.1147 5.91182 18.9272 5.88724 18.7551L3.90734 19.0379ZM5.96058 19.3136C5.91837 18.8957 5.951 18.5276 5.951 17.9492H3.951C3.951 18.3376 3.91526 18.9656 3.97071 19.5146L5.96058 19.3136ZM5.951 17.9492V7.46094H3.951V17.9492H5.951ZM5.951 7.46094C5.951 6.76239 5.90384 6.30327 5.95983 5.78641L3.97146 5.57101C3.9005 6.22603 3.951 6.98762 3.951 7.46094H5.951ZM3.9757 5.53729C3.95111 5.70939 3.92499 5.89695 3.90376 6.08274L5.89082 6.30984C5.90865 6.15383 5.93135 5.98983 5.9556 5.82013L3.9757 5.53729ZM5.8853 6.35067C5.9014 6.24764 5.91926 6.18257 5.94295 6.12334L4.086 5.38056C3.9925 5.61431 3.94201 5.83244 3.90928 6.04191L5.8853 6.35067ZM4.08801 5.37558C4.0592 5.44648 4.02886 5.51845 3.99546 5.59763C3.96294 5.6747 3.92737 5.75898 3.8927 5.84433L5.74563 6.59708C5.77444 6.52617 5.80478 6.4542 5.83818 6.37503C5.8707 6.29795 5.90627 6.21367 5.94094 6.12833L4.08801 5.37558ZM5.72617 6.64181C5.76463 6.55897 5.8024 6.49585 5.84482 6.44004L4.25249 5.22988C4.10936 5.41821 4.00064 5.609 3.91215 5.79959L5.72617 6.64181ZM4.2593 5.22102L3.95169 5.61653L5.53039 6.84441L5.83801 6.4489L4.2593 5.22102ZM5.50298 6.87812C5.55103 6.82158 5.6007 6.77191 5.65724 6.72385L4.36194 5.19997C4.22317 5.31793 4.09706 5.44405 3.9791 5.58282L5.50298 6.87812ZM4.39565 5.17256L4.00014 5.48018L5.22803 7.05888L5.62353 6.75127L4.39565 5.17256ZM5.21917 7.06569C5.28264 7.01746 5.3392 6.98378 5.40888 6.95255L4.59077 5.12753C4.37725 5.22325 4.18967 5.33606 4.009 5.47337L5.21917 7.06569ZM4.62345 5.11357C4.53811 5.14824 4.45383 5.18381 4.37675 5.21633C4.29758 5.24973 4.22561 5.28008 4.1547 5.30888L4.90745 7.16182C4.9928 7.12715 5.07708 7.09158 5.15415 7.05906C5.23333 7.02566 5.3053 6.99531 5.3762 6.96651L4.62345 5.11357ZM4.90247 7.16383C4.98009 7.13278 5.03859 7.11805 5.09945 7.11044L4.85138 5.12589C4.59973 5.15734 4.37503 5.22074 4.15969 5.30687L4.90247 7.16383ZM4.83399 5.12821C4.66429 5.15246 4.50029 5.17516 4.34429 5.19299L4.57138 7.18006C4.75718 7.15882 4.94474 7.1327 5.11683 7.10811L4.83399 5.12821ZM4.55833 7.18146C4.97621 7.13925 5.34427 7.17188 5.92268 7.17188V5.17188C5.53429 5.17188 4.90626 5.13614 4.35734 5.19159L4.55833 7.18146ZM5.92268 7.17188H16.411V5.17188H5.92268V7.17188ZM16.411 7.17188C17.1095 7.17188 17.5686 7.12471 18.0855 7.18071L18.3009 5.19234C17.6459 5.12138 16.8843 5.17188 16.411 5.17188V7.17188ZM18.3346 5.19657C18.1625 5.17199 17.9749 5.14587 17.7892 5.12463L17.5621 7.1117C17.7181 7.12953 17.8821 7.15223 18.0518 7.17647L18.3346 5.19657ZM17.5212 7.10618C17.6243 7.12227 17.6893 7.14014 17.7486 7.16383L18.4913 5.30687C18.2576 5.21338 18.0395 5.16288 17.83 5.13015L17.5212 7.10618ZM18.4963 5.30888C18.4254 5.28008 18.3534 5.24973 18.2743 5.21633C18.1972 5.18381 18.1129 5.14824 18.0276 5.11357L17.2748 6.96651C17.3457 6.99531 17.4177 7.02566 17.4969 7.05906C17.5739 7.09158 17.6582 7.12715 17.7436 7.16182L18.4963 5.30888ZM17.2301 6.94705C17.3129 6.98551 17.376 7.02328 17.4319 7.06569L18.642 5.47337C18.4537 5.33024 18.2629 5.22152 18.0723 5.13303L17.2301 6.94705ZM18.6509 5.48018L18.2554 5.17256L17.0275 6.75127L17.423 7.05888L18.6509 5.48018ZM16.9938 6.72385C17.0503 6.77191 17.1 6.82158 17.148 6.87812L18.6719 5.58282C18.554 5.44405 18.4279 5.31793 18.2891 5.19997L16.9938 6.72385ZM18.6993 5.61653L18.3917 5.22102L16.813 6.4489L17.1206 6.84441L18.6993 5.61653ZM16.8062 6.44004C16.8544 6.50351 16.8881 6.56008 16.9193 6.62976L18.7444 5.81165C18.6487 5.59812 18.5358 5.41055 18.3985 5.22988L16.8062 6.44004ZM18.7583 5.84433C18.7237 5.75898 18.6881 5.6747 18.6556 5.59763C18.6222 5.51845 18.5918 5.44648 18.563 5.37558L16.7101 6.12833C16.7448 6.21367 16.7803 6.29795 16.8128 6.37503C16.8462 6.4542 16.8766 6.52617 16.9054 6.59708L18.7583 5.84433ZM16.7081 6.12334C16.7391 6.20097 16.7538 6.25947 16.7615 6.32032L18.746 6.07225C18.7146 5.82061 18.6512 5.59591 18.565 5.38056L16.7081 6.12334ZM18.7437 6.05487C18.7194 5.88517 18.6967 5.72117 18.6789 5.56516L16.6918 5.79226C16.7131 5.97805 16.7392 6.16561 16.7638 6.33771L18.7437 6.05487ZM16.6904 5.77921C16.7326 6.19709 16.7 6.56515 16.7 7.14355H18.7C18.7 6.75517 18.7358 6.12713 18.6803 5.57821L16.6904 5.77921ZM16.7 7.14355V17.6318H18.7V7.14355H16.7ZM16.7 17.6318C16.7 18.3304 16.7472 18.7895 16.6912 19.3064L18.6796 19.5218C18.7505 18.8667 18.7 18.1052 18.7 17.6318H16.7ZM18.6753 19.5555C18.6999 19.3834 18.726 19.1958 18.7473 19.01L16.7602 18.7829C16.7424 18.9389 16.7197 19.1029 16.6954 19.2726L18.6753 19.5555ZM16.7657 18.7421C16.7496 18.8451 16.7318 18.9102 16.7081 18.9694L18.565 19.7122C18.6585 19.4785 18.709 19.2603 18.7417 19.0509L16.7657 18.7421ZM18.563 19.7172C18.5918 19.6463 18.6222 19.5743 18.6556 19.4951C18.6881 19.4181 18.7237 19.3338 18.7583 19.2484L16.9054 18.4957C16.8766 18.5666 16.8462 18.6386 16.8128 18.7177C16.7803 18.7948 16.7448 18.8791 16.7101 18.9644L18.563 19.7172ZM16.9249 18.451C16.8864 18.5338 16.8486 18.5969 16.8062 18.6527L18.3985 19.8629C18.5417 19.6746 18.6504 19.4838 18.7389 19.2932L16.9249 18.451ZM18.3917 19.8718L18.6993 19.4762L17.1206 18.2484L16.813 18.6439L18.3917 19.8718ZM17.148 18.2147C17.1 18.2712 17.0503 18.3209 16.9938 18.3689L18.2891 19.8928C18.4279 19.7748 18.554 19.6487 18.6719 19.51L17.148 18.2147ZM18.2554 19.9202L18.6509 19.6126L17.423 18.0339L17.0275 18.3415L18.2554 19.9202ZM17.4319 18.0271C17.3684 18.0753 17.3118 18.109 17.2421 18.1402L18.0603 19.9652C18.2738 19.8695 18.4614 19.7567 18.642 19.6194L17.4319 18.0271ZM18.0276 19.9792C18.1129 19.9445 18.1972 19.909 18.2743 19.8764C18.3534 19.843 18.4254 19.8127 18.4963 19.7839L17.7436 17.931C17.6582 17.9656 17.5739 18.0012 17.4969 18.0337C17.4177 18.0671 17.3457 18.0975 17.2748 18.1263L18.0276 19.9792ZM17.7486 17.9289C17.6709 17.96 17.6124 17.9747 17.5516 17.9823L17.7996 19.9669C18.0513 19.9354 18.276 19.872 18.4913 19.7859L17.7486 17.9289ZM17.817 19.9646C17.9867 19.9403 18.1507 19.9176 18.3067 19.8998L18.0796 17.9127C17.8938 17.934 17.7063 17.9601 17.5342 17.9847L17.817 19.9646ZM18.0411 17.9179C18.0328 17.9192 18.0156 17.9209 17.993 17.9209V19.9209C18.1071 19.9209 18.2266 19.9129 18.3452 19.8946L18.0411 17.9179ZM17.9738 17.9211C17.2303 17.9354 16.4638 18.2254 15.904 18.7851L17.3183 20.1993C17.4812 20.0363 17.7401 19.9259 18.0122 19.9207L17.9738 17.9211ZM15.904 18.7851C15.4069 19.2822 15 20.102 15.0411 20.924L17.0386 20.8241C17.0309 20.6695 17.1416 20.376 17.3183 20.1993L15.904 18.7851ZM15.041 20.9209C15.1101 22.3938 16.2759 23.8657 18.0153 23.8269L17.9707 21.8274C17.5226 21.8374 17.0673 21.4343 17.0388 20.8271L15.041 20.9209ZM18.0134 23.8269C19.2042 23.8026 20.3776 23.3572 21.2563 22.4721L19.8371 21.063C19.3584 21.5451 18.6959 21.8126 17.9726 21.8274L18.0134 23.8269ZM21.2538 22.4747C22.1137 21.6148 22.5521 20.4798 22.6005 19.3241L20.6023 19.2404C20.5725 19.9499 20.3079 20.5922 19.8396 21.0605L21.2538 22.4747ZM22.6009 19.3125C22.6063 19.1338 22.6014 18.9215 22.6014 18.8037H20.6014C20.6014 19.0082 20.6062 19.1084 20.6018 19.2519L22.6009 19.3125ZM22.6014 18.8037V7.85645H20.6014V18.8037H22.6014ZM22.6014 7.85645C22.6014 7.22833 22.6112 6.55135 22.6013 5.89317L20.6015 5.92324C20.6111 6.56388 20.6014 7.18573 20.6014 7.85645H22.6014ZM22.6013 5.8935C22.5771 4.24989 21.6815 2.51809 20.0387 1.75837L19.1992 3.57366C20.0271 3.95652 20.5866 4.91027 20.6015 5.92291L22.6013 5.8935ZM20.0401 1.75901C19.3917 1.45796 18.7576 1.27678 17.9716 1.27054L17.9558 3.27048C18.4003 3.274 18.7525 3.36626 19.1979 3.57302L20.0401 1.75901ZM17.9637 1.27051H4.76057V3.27051H17.9637V1.27051ZM4.76057 1.27051C3.54198 1.27051 2.3084 1.70545 1.39477 2.62542L2.81387 4.03473C3.30649 3.53869 4.0065 3.27051 4.76057 3.27051V1.27051ZM1.39721 2.62297C0.480064 3.54012 0.0447491 4.76698 0.0447491 5.99609H2.04475C2.04475 5.23302 2.31256 4.53605 2.81143 4.03718L1.39721 2.62297ZM0.0447491 5.99609V19.1943H2.04475V5.99609H0.0447491ZM0.0447811 19.2023C0.0510479 19.9857 0.238299 20.6288 0.53158 21.2671L2.34893 20.4321C2.14417 19.9864 2.04822 19.6237 2.04472 19.1863L0.0447811 19.2023ZM0.532613 21.2693C1.29233 22.9122 3.02413 23.8078 4.66774 23.8319L4.69715 21.8321C3.68451 21.8172 2.73076 21.2578 2.3479 20.4299L0.532613 21.2693ZM4.66995 23.832C6.63036 23.8565 8.6064 23.832 10.5418 23.832V21.832C8.57099 21.832 6.64078 21.8564 4.69494 21.8321L4.66995 23.832ZM10.5418 23.832H17.9881V21.832H10.5418V23.832ZM17.9881 23.832C19.5054 23.832 21.0187 22.5281 20.9402 20.8327L18.9423 20.9252C18.9615 21.339 18.5118 21.832 17.9881 21.832V23.832ZM20.9406 20.8422C20.8842 19.3058 19.693 17.9209 17.993 17.9209V19.9209C18.4902 19.9209 18.9202 20.3231 18.9419 20.9156L20.9406 20.8422ZM17.993 26.1729H5.28303V28.1729H17.993V26.1729ZM5.28303 26.1729C5.11738 26.1729 4.87248 26.1679 4.65806 26.1731L4.70683 28.1726C4.8928 28.168 5.04828 28.1729 5.28303 28.1729V26.1729ZM4.66701 26.173C2.65821 26.204 0.968518 27.4539 0.299095 29.3148L2.18103 29.9918C2.57606 28.8937 3.54262 28.1906 4.69787 28.1727L4.66701 26.173ZM0.299727 29.3131C0.114 29.8263 0.0602746 30.3535 0.0447171 30.8107C0.030219 31.2368 0.0496319 31.7474 0.0496319 32.0654H2.04963C2.04963 31.6023 2.02998 31.2778 2.04356 30.8787C2.05608 30.5108 2.09757 30.2225 2.1804 29.9936L0.299727 29.3131ZM0.0496319 32.0654V44.0283H2.04963V32.0654H0.0496319ZM0.0496319 44.0283C0.0496319 45.2768 0.516063 46.5985 1.53615 47.5088L2.8678 46.0166C2.34492 45.55 2.04963 44.8111 2.04963 44.0283H0.0496319ZM1.53606 47.5087C2.45437 48.3284 3.57795 48.7344 4.78498 48.7344V46.7344C4.04866 46.7344 3.40466 46.4958 2.86789 46.0167L1.53606 47.5087ZM4.78498 48.7344H17.7781V46.7344H4.78498V48.7344ZM17.7781 48.7344C18.6005 48.7344 19.4153 48.582 20.2097 48.1662L19.2822 46.3943C18.8265 46.6328 18.3425 46.7344 17.7781 46.7344V48.7344ZM20.2065 48.1679C21.7468 47.3688 22.599 45.7015 22.6111 44.0945L20.6112 44.0793C20.6038 45.0505 20.0791 45.9809 19.2854 46.3926L20.2065 48.1679ZM22.6112 44.0869V32.2998H20.6112V44.0869H22.6112ZM22.6112 32.2998C22.6112 31.8263 22.6516 31.1143 22.592 30.4867L20.601 30.6755C20.6489 31.1806 20.6112 31.6405 20.6112 32.2998H22.6112ZM22.5927 30.4944C22.4988 29.4143 22.0864 28.2825 21.1802 27.448L19.8254 28.9192C20.2765 29.3347 20.5379 29.9509 20.6003 30.6677L22.5927 30.4944ZM21.1808 27.4486C20.3089 26.6442 19.2111 26.1976 18.0135 26.1731L17.9725 28.1726C18.6791 28.1871 19.3099 28.4436 19.8247 28.9186L21.1808 27.4486ZM18.0121 26.173C17.195 26.1574 16.444 26.5182 15.9143 27.0391C15.3829 27.5616 15.0009 28.3193 15.041 29.1729L17.0388 29.0791C17.03 28.8927 17.1143 28.664 17.3166 28.4651C17.5205 28.2645 17.7705 28.1688 17.9739 28.1727L18.0121 26.173ZM15.0409 29.1714C15.112 30.7353 16.3159 32.0419 17.9707 32.0789L18.0153 30.0794C17.4825 30.0675 17.0654 29.6651 17.0388 29.0806L15.0409 29.1714ZM17.993 32.0791C18.0136 32.0791 18.0347 32.0806 18.0566 32.0837L18.3395 30.1038C18.2248 30.0874 18.1091 30.0791 17.993 30.0791V32.0791ZM18.3395 30.1038C18.1674 30.0792 17.9798 30.0531 17.794 30.0319L17.5669 32.0189C17.723 32.0368 17.887 32.0595 18.0566 32.0837L18.3395 30.1038ZM17.5261 32.0134C17.6291 32.0295 17.6942 32.0474 17.7534 32.0711L18.4962 30.2141C18.2625 30.1206 18.0443 30.0701 17.8349 30.0374L17.5261 32.0134ZM18.5012 30.2161C18.4303 30.1873 18.3583 30.157 18.2792 30.1236C18.2021 30.091 18.1178 30.0555 18.0325 30.0208L17.2797 31.8737C17.3506 31.9025 17.4226 31.9329 17.5018 31.9663C17.5788 31.9988 17.6631 32.0344 17.7485 32.069L18.5012 30.2161ZM17.235 31.8543C17.3178 31.8927 17.3809 31.9305 17.4367 31.9729L18.6469 30.3806C18.4586 30.2375 18.2678 30.1287 18.0772 30.0403L17.235 31.8543ZM18.6558 30.3874L18.2603 30.0798L17.0324 31.6585L17.4279 31.9661L18.6558 30.3874ZM16.9987 31.6311C17.0552 31.6791 17.1049 31.7288 17.1529 31.7853L18.6768 30.49C18.5588 30.3513 18.4327 30.2252 18.294 30.1072L16.9987 31.6311ZM18.7042 30.5238L18.3966 30.1282L16.8179 31.3561L17.1255 31.7516L18.7042 30.5238ZM16.8111 31.3473C16.8593 31.4107 16.893 31.4673 16.9242 31.537L18.7493 30.7189C18.6535 30.5054 18.5407 30.3178 18.4034 30.1371L16.8111 31.3473ZM18.7632 30.7516C18.7285 30.6662 18.693 30.5819 18.6604 30.5049C18.627 30.4257 18.5967 30.3537 18.5679 30.2828L16.715 31.0356C16.7496 31.1209 16.7852 31.2052 16.8177 31.2823C16.8511 31.3614 16.8815 31.4334 16.9103 31.5043L18.7632 30.7516ZM16.713 31.0306C16.744 31.1082 16.7587 31.1667 16.7663 31.2276L18.7509 30.9795C18.7194 30.7278 18.656 30.5031 18.5699 30.2878L16.713 31.0306ZM18.7486 30.9621C18.7243 30.7924 18.7016 30.6284 18.6838 30.4724L16.6967 30.6995C16.718 30.8853 16.7441 31.0728 16.7687 31.2449L18.7486 30.9621ZM16.6953 30.6864C16.7375 31.1043 16.7049 31.4724 16.7049 32.0508H18.7049C18.7049 31.6624 18.7406 31.0344 18.6852 30.4854L16.6953 30.6864ZM16.7049 32.0508V42.5391H18.7049V32.0508H16.7049ZM16.7049 42.5391C16.7049 43.2376 16.7521 43.6967 16.6961 44.2136L18.6844 44.429C18.7554 43.774 18.7049 43.0124 18.7049 42.5391H16.7049ZM18.6802 44.4627C18.7048 44.2906 18.7309 44.1031 18.7521 43.9173L16.7651 43.6902C16.7473 43.8462 16.7246 44.0102 16.7003 44.1799L18.6802 44.4627ZM16.7706 43.6493C16.7545 43.7524 16.7366 43.8174 16.713 43.8767L18.5699 44.6194C18.6634 44.3857 18.7139 44.1676 18.7466 43.9581L16.7706 43.6493ZM18.5679 44.6244C18.5967 44.5535 18.627 44.4815 18.6604 44.4024C18.693 44.3253 18.7285 44.241 18.7632 44.1557L16.9103 43.4029C16.8815 43.4738 16.8511 43.5458 16.8177 43.625C16.7852 43.702 16.7496 43.7863 16.715 43.8717L18.5679 44.6244ZM16.9297 43.3582C16.8913 43.441 16.8535 43.5042 16.8111 43.56L18.4034 44.7701C18.5465 44.5818 18.6553 44.391 18.7437 44.2004L16.9297 43.3582ZM18.3966 44.779L18.7042 44.3835L17.1255 43.1556L16.8179 43.5511L18.3966 44.779ZM17.1529 43.1219C17.1049 43.1784 17.0552 43.2281 16.9987 43.2761L18.294 44.8C18.4327 44.6821 18.5588 44.556 18.6768 44.4172L17.1529 43.1219ZM18.2603 44.8274L18.6558 44.5198L17.4279 42.9411L17.0324 43.2487L18.2603 44.8274ZM17.4367 42.9343C17.3733 42.9825 17.3167 43.0162 17.247 43.0475L18.0651 44.8725C18.2787 44.7768 18.4662 44.6639 18.6469 44.5266L17.4367 42.9343ZM18.0325 44.8864C18.1178 44.8518 18.2021 44.8162 18.2792 44.7837C18.3583 44.7503 18.4303 44.7199 18.5012 44.6911L17.7485 42.8382C17.6631 42.8729 17.5788 42.9084 17.5018 42.9409C17.4226 42.9743 17.3506 43.0047 17.2797 43.0335L18.0325 44.8864ZM17.7534 42.8362C17.6758 42.8672 17.6173 42.882 17.5565 42.8896L17.8045 44.8741C18.0562 44.8427 18.2809 44.7793 18.4962 44.6931L17.7534 42.8362ZM17.8219 44.8718C17.9916 44.8475 18.1556 44.8248 18.3116 44.807L18.0845 42.8199C17.8987 42.8412 17.7112 42.8673 17.5391 42.8919L17.8219 44.8718ZM18.0976 42.8185C17.6797 42.8607 17.3116 42.8281 16.7332 42.8281V44.8281C17.1216 44.8281 17.7496 44.8639 18.2986 44.8084L18.0976 42.8185ZM16.7332 42.8281H6.24494V44.8281H16.7332V42.8281ZM6.24494 42.8281C5.54639 42.8281 5.08728 42.8753 4.57042 42.8193L4.35501 44.8077C5.01003 44.8786 5.77162 44.8281 6.24494 44.8281V42.8281ZM4.3213 44.8034C4.49339 44.828 4.68095 44.8541 4.86675 44.8754L5.09384 42.8883C4.93784 42.8705 4.77385 42.8478 4.60414 42.8235L4.3213 44.8034ZM5.13467 42.8938C5.03166 42.8777 4.96658 42.8599 4.90735 42.8362L4.16457 44.6931C4.39831 44.7866 4.61644 44.8371 4.82592 44.8698L5.13467 42.8938ZM4.15958 44.6911C4.23049 44.7199 4.30246 44.7503 4.38163 44.7837C4.45871 44.8162 4.54299 44.8518 4.62833 44.8864L5.38109 43.0335C5.31018 43.0047 5.23821 42.9743 5.15904 42.9409C5.08196 42.9084 4.99768 42.8729 4.91234 42.8382L4.15958 44.6911ZM5.42582 43.053C5.34298 43.0145 5.27986 42.9767 5.22405 42.9343L4.01388 44.5266C4.20221 44.6698 4.393 44.7785 4.5836 44.867L5.42582 43.053ZM4.00502 44.5198L4.40053 44.8274L5.62842 43.2487L5.23291 42.9411L4.00502 44.5198ZM5.66212 43.2761C5.60559 43.2281 5.55592 43.1784 5.50786 43.1219L3.98398 44.4172C4.10194 44.556 4.22805 44.6821 4.36683 44.8L5.66212 43.2761ZM3.95657 44.3835L4.26419 44.779L5.84289 43.5511L5.53527 43.1556L3.95657 44.3835ZM5.8497 43.56C5.80147 43.4965 5.76779 43.4399 5.73656 43.3702L3.91154 44.1884C4.00725 44.4019 4.12006 44.5894 4.25738 44.7701L5.8497 43.56ZM3.89758 44.1557C3.93225 44.241 3.96782 44.3253 4.00034 44.4024C4.03374 44.4815 4.06409 44.5535 4.09289 44.6244L5.94583 43.8717C5.91116 43.7863 5.87558 43.702 5.84307 43.625C5.80967 43.5458 5.77932 43.4738 5.75051 43.4029L3.89758 44.1557ZM5.94784 43.8767C5.91679 43.799 5.90206 43.7405 5.89445 43.6797L3.90989 43.9277C3.94135 44.1794 4.00474 44.4041 4.09088 44.6194L5.94784 43.8767ZM3.91222 43.9451C3.93646 44.1148 3.95917 44.2788 3.977 44.4348L5.96406 44.2077C5.94283 44.0219 5.91671 43.8344 5.89212 43.6623L3.91222 43.9451ZM5.96547 44.2208C5.92326 43.8029 5.95588 43.4349 5.95588 42.8564H3.95588C3.95588 43.2448 3.92015 43.8729 3.97559 44.4218L5.96547 44.2208ZM5.95588 42.8564V32.3682H3.95588V42.8564H5.95588ZM5.95588 32.3682C5.95588 31.6696 5.90872 31.2105 5.96471 30.6936L3.97635 30.4782C3.90539 31.1333 3.95588 31.8948 3.95588 32.3682H5.95588ZM3.98058 30.4445C3.956 30.6166 3.92987 30.8042 3.90864 30.99L5.8957 31.2171C5.91353 31.0611 5.93624 30.8971 5.96048 30.7274L3.98058 30.4445ZM5.89018 31.2579C5.90628 31.1549 5.92414 31.0898 5.94784 31.0306L4.09088 30.2878C3.99739 30.5215 3.94689 30.7397 3.91416 30.9491L5.89018 31.2579ZM4.09289 30.2828C4.06409 30.3537 4.03374 30.4257 4.00034 30.5049C3.96782 30.5819 3.93225 30.6662 3.89758 30.7516L5.75051 31.5043C5.77932 31.4334 5.80966 31.3614 5.84307 31.2823C5.87558 31.2052 5.91115 31.1209 5.94583 31.0356L4.09289 30.2828ZM5.73106 31.549C5.76952 31.4662 5.80729 31.4031 5.8497 31.3473L4.25738 30.1371C4.11424 30.3254 4.00553 30.5162 3.91704 30.7068L5.73106 31.549ZM4.26418 30.1282L3.95657 30.5238L5.53527 31.7516L5.84289 31.3561L4.26418 30.1282ZM5.50786 31.7853C5.55592 31.7288 5.60559 31.6791 5.66212 31.6311L4.36683 30.1072C4.22805 30.2252 4.10194 30.3513 3.98398 30.49L5.50786 31.7853ZM4.40054 30.0798L4.00503 30.3874L5.23291 31.9661L5.62842 31.6585L4.40054 30.0798ZM5.22405 31.9729C5.28752 31.9247 5.34409 31.891 5.41377 31.8598L4.59565 30.0348C4.38213 30.1305 4.19455 30.2433 4.01388 30.3806L5.22405 31.9729ZM4.62833 30.0208C4.54299 30.0555 4.45871 30.091 4.38163 30.1236C4.30246 30.157 4.23049 30.1873 4.15958 30.2161L4.91234 32.069C4.99768 32.0344 5.08196 31.9988 5.15904 31.9663C5.23821 31.9329 5.31018 31.9025 5.38109 31.8737L4.62833 30.0208ZM4.90735 32.0711C4.98497 32.04 5.04347 32.0253 5.10433 32.0177L4.85626 30.0331C4.60462 30.0646 4.37992 30.128 4.16457 30.2141L4.90735 32.0711ZM4.83887 30.0354C4.66918 30.0597 4.50518 30.0824 4.34917 30.1002L4.57626 32.0873C4.76205 32.066 4.94961 32.0399 5.12172 32.0153L4.83887 30.0354ZM4.56322 32.0887C4.98109 32.0465 5.34915 32.0791 5.92756 32.0791V30.0791C5.53917 30.0791 4.91114 30.0434 4.36222 30.0988L4.56322 32.0887ZM5.92756 32.0791H17.9979V30.0791H5.92756V32.0791ZM17.9979 32.0791C19.5152 32.0791 21.0284 30.7752 20.9499 29.0797L18.9521 29.1722C18.9712 29.5861 18.5216 30.0791 17.9979 30.0791V32.0791ZM20.9499 29.0799C20.8797 27.5559 19.6928 26.1729 17.993 26.1729V28.1729C18.4905 28.1729 18.9246 28.5769 18.9521 29.172L20.9499 29.0799ZM26.7528 11H44.5018V9H26.7528V11ZM44.5018 11C45.2968 11 46.1498 11.0147 46.9806 10.9998L46.9449 9.00016C46.135 9.01462 45.3474 9 44.5018 9V11ZM46.9627 11H46.9969V9H46.9627V11ZM46.9969 11C48.5142 11 50.0274 9.69612 49.949 8.00063L47.9511 8.09312C47.9703 8.50701 47.5206 9 46.9969 9V11ZM49.949 8.00084C49.8788 6.47847 48.6934 5.09375 46.9969 5.09375V7.09375C47.4879 7.09375 47.9236 7.49614 47.9511 8.09291L49.949 8.00084ZM46.9969 5.09375H29.2479V7.09375H46.9969V5.09375ZM29.2479 5.09375C28.4529 5.09375 27.5998 5.07908 26.7691 5.09391L26.8048 7.09359C27.6147 7.07913 28.4023 7.09375 29.2479 7.09375V5.09375ZM26.7869 5.09375H26.7528V7.09375H26.7869V5.09375ZM26.7528 5.09375C25.2355 5.09375 23.7222 6.39763 23.8007 8.09312L25.7986 8.00063C25.7794 7.58674 26.2291 7.09375 26.7528 7.09375V5.09375ZM23.8005 8.08851C23.864 9.61192 25.0584 11 26.7528 11V9C26.2596 9 25.8232 8.59121 25.7988 8.00524L23.8005 8.08851ZM39.3309 14.0977H26.7479V16.0977H39.3309V14.0977ZM26.7479 14.0977C25.2306 14.0977 23.7173 15.4015 23.7958 17.097L25.7937 17.0045C25.7745 16.5906 26.2242 16.0977 26.7479 16.0977V14.0977ZM23.7958 17.0968C23.866 18.6192 25.0514 20.0039 26.7479 20.0039V18.0039C26.2568 18.0039 25.8212 17.6015 25.7937 17.0047L23.7958 17.0968ZM26.7479 20.0039H39.3309V18.0039H26.7479V20.0039ZM39.3309 20.0039C40.8482 20.0039 42.3614 18.7 42.2829 17.0045L40.2851 17.097C40.3042 17.5109 39.8546 18.0039 39.3309 18.0039V20.0039ZM42.2831 17.0093C42.2198 15.4808 41.0301 14.0977 39.3309 14.0977V16.0977C39.8289 16.0977 40.2604 16.5016 40.2849 17.0922L42.2831 17.0093ZM26.7528 35.9023H44.5018V33.9023H26.7528V35.9023ZM44.5018 35.9023C45.2968 35.9023 46.1498 35.917 46.9806 35.9022L46.9449 33.9025C46.135 33.917 45.3474 33.9023 44.5018 33.9023V35.9023ZM46.9627 35.9023H46.9969V33.9023H46.9627V35.9023ZM46.9969 35.9023C48.5142 35.9023 50.0274 34.5985 49.949 32.903L47.9511 32.9955C47.9703 33.4094 47.5206 33.9023 46.9969 33.9023V35.9023ZM49.949 32.9032C49.8788 31.3808 48.6934 29.9961 46.9969 29.9961V31.9961C47.4879 31.9961 47.9236 32.3985 47.9511 32.9953L49.949 32.9032ZM46.9969 29.9961H29.2479V31.9961H46.9969V29.9961ZM29.2479 29.9961C28.4529 29.9961 27.5998 29.9814 26.7691 29.9963L26.8048 31.9959C27.6147 31.9815 28.4023 31.9961 29.2479 31.9961V29.9961ZM26.7869 29.9961H26.7528V31.9961H26.7869V29.9961ZM26.7528 29.9961C25.2355 29.9961 23.7222 31.3 23.8007 32.9955L25.7986 32.903C25.7794 32.4891 26.2291 31.9961 26.7528 31.9961V29.9961ZM23.8005 32.9907C23.864 34.5208 25.06 35.9023 26.7528 35.9023V33.9023C26.258 33.9023 25.8232 33.4967 25.7988 32.9078L23.8005 32.9907ZM39.3309 39H26.7479V41H39.3309V39ZM26.7479 39C25.2306 39 23.7173 40.3039 23.7958 41.9994L25.7937 41.9069C25.7745 41.493 26.2242 41 26.7479 41V39ZM23.7958 41.9992C23.866 43.5215 25.0514 44.9063 26.7479 44.9063V42.9063C26.2568 42.9063 25.8212 42.5039 25.7937 41.9071L23.7958 41.9992ZM26.7479 44.9063H39.3309V42.9063H26.7479V44.9063ZM39.3309 44.9063C40.8482 44.9063 42.3614 43.6024 42.2829 41.9069L40.2851 41.9994C40.3042 42.4133 39.8546 42.9063 39.3309 42.9063V44.9063ZM42.2831 41.9115C42.2197 40.3898 41.0317 39 39.3309 39V41C39.8273 41 40.2604 41.4071 40.2849 41.9948L42.2831 41.9115Z" fill="black" fill-opacity="0.25" mask="url(#path-1-outside-1_219_18)"/>
</svg>
