<?xml version="1.0" encoding="utf-8"?>
<!-- Generator: Adobe Illustrator 23.1.0, SVG Export Plug-In . SVG Version: 6.00 Build 0)  -->
<svg version="1.1" id="Layer_1" xmlns="http://www.w3.org/2000/svg" xmlns:xlink="http://www.w3.org/1999/xlink" x="0px" y="0px"
	 viewBox="0 0 50 50" style="enable-background:new 0 0 50 50;" xml:space="preserve">
<style type="text/css">
	.st0{fill:#01B9F5;stroke:#01B9F5;stroke-width:2;stroke-miterlimit:10;}
	.st1{fill:#01B9F5;}
</style>
<path class="st0" d="M20.37,23.05H8.63c-2.28,0-4.13-1.85-4.13-4.13V7.18c0-2.28,1.85-4.13,4.13-4.13h11.74
	c2.28,0,4.13,1.85,4.13,4.13v11.74C24.5,21.2,22.65,23.05,20.37,23.05z"/>
<path class="st0" d="M20.4,46.45H8.6c-2.26,0-4.1-1.83-4.1-4.1V30.55c0-2.26,1.83-4.1,4.1-4.1H20.4c2.26,0,4.1,1.83,4.1,4.1v11.81
	C24.5,44.62,22.67,46.45,20.4,46.45z"/>
<g>
	<path class="st1" d="M44.5,11.55h-15c-1.1,0-2-0.9-2-2v0c0-1.1,0.9-2,2-2h15c1.1,0,2,0.9,2,2v0C46.5,10.65,45.6,11.55,44.5,11.55z"
		/>
	<path class="st1" d="M38.5,18.55h-9c-1.1,0-2-0.9-2-2v0c0-1.1,0.9-2,2-2h9c1.1,0,2,0.9,2,2v0C40.5,17.65,39.6,18.55,38.5,18.55z"/>
</g>
<g>
	<path class="st1" d="M44.5,34.95h-15c-1.1,0-2-0.9-2-2v0c0-1.1,0.9-2,2-2h15c1.1,0,2,0.9,2,2v0C46.5,34.05,45.6,34.95,44.5,34.95z"
		/>
	<path class="st1" d="M38.5,41.95h-9c-1.1,0-2-0.9-2-2v0c0-1.1,0.9-2,2-2h9c1.1,0,2,0.9,2,2v0C40.5,41.05,39.6,41.95,38.5,41.95z"/>
</g>
</svg>
