<svg width="14" height="14" viewBox="0 0 14 14" fill="none" xmlns="http://www.w3.org/2000/svg">
<path d="M7.40217 10.2616C7.59256 10.2616 7.75357 10.1958 7.88521 10.0641C8.01685 9.93249 8.08249 9.77166 8.08213 9.58163C8.08213 9.39124 8.01649 9.23023 7.88521 9.09859C7.75393 8.96695 7.59292 8.90131 7.40217 8.90167C7.21178 8.90167 7.05094 8.96749 6.91967 9.09913C6.78839 9.23077 6.72257 9.39161 6.72221 9.58163C6.72221 9.77202 6.78803 9.93304 6.91967 10.0647C7.05131 10.1963 7.21214 10.262 7.40217 10.2616ZM6.9126 8.16732H7.91894C7.91894 7.86813 7.95303 7.63242 8.0212 7.46016C8.08938 7.2879 8.28194 7.05218 8.5989 6.753C8.83462 6.51728 9.02047 6.2928 9.15646 6.07957C9.29246 5.86633 9.36045 5.6103 9.36045 5.31148C9.36045 4.80378 9.1746 4.41394 8.80288 4.14195C8.43117 3.86997 7.99147 3.73398 7.48376 3.73398C6.96699 3.73398 6.54759 3.86997 6.22556 4.14195C5.90353 4.41394 5.67924 4.74032 5.55268 5.1211L6.45022 5.47468C6.49555 5.31148 6.59764 5.1347 6.75648 4.94431C6.91532 4.75392 7.15774 4.65872 7.48376 4.65872C7.77388 4.65872 7.99147 4.73814 8.13652 4.89698C8.28158 5.05582 8.35411 5.23025 8.35411 5.42028C8.35411 5.6016 8.29971 5.77168 8.19092 5.93052C8.08213 6.08936 7.94613 6.23659 7.78294 6.37222C7.38403 6.7258 7.13925 6.99325 7.04859 7.17458C6.95793 7.3559 6.9126 7.68681 6.9126 8.16732ZM7.42937 12.4375C6.67688 12.4375 5.96972 12.2946 5.30789 12.0088C4.64606 11.7231 4.07036 11.3356 3.58079 10.8464C3.09122 10.3568 2.70373 9.78109 2.41833 9.11926C2.13293 8.45743 1.99005 7.75027 1.98969 6.99779C1.98969 6.2453 2.13257 5.53814 2.41833 4.87631C2.7041 4.21448 3.09158 3.63878 3.58079 3.14921C4.07036 2.65964 4.64606 2.27215 5.30789 1.98675C5.96972 1.70135 6.67688 1.55847 7.42937 1.55811C8.18185 1.55811 8.88901 1.70099 9.55084 1.98675C10.2127 2.27252 10.7884 2.66 11.2779 3.14921C11.7675 3.63878 12.1552 4.21448 12.4409 4.87631C12.7267 5.53814 12.8694 6.2453 12.869 6.99779C12.869 7.75027 12.7262 8.45743 12.4404 9.11926C12.1546 9.78109 11.7671 10.3568 11.2779 10.8464C10.7884 11.3359 10.2127 11.7236 9.55084 12.0094C8.88901 12.2951 8.18185 12.4378 7.42937 12.4375ZM7.42937 11.3495C8.64423 11.3495 9.67323 10.928 10.5164 10.0848C11.3595 9.24165 11.7811 8.21265 11.7811 6.99779C11.7811 5.78292 11.3595 4.75392 10.5164 3.91077C9.67323 3.06762 8.64423 2.64604 7.42937 2.64604C6.2145 2.64604 5.1855 3.06762 4.34235 3.91077C3.4992 4.75392 3.07762 5.78292 3.07762 6.99779C3.07762 8.21265 3.4992 9.24165 4.34235 10.0848C5.1855 10.928 6.2145 11.3495 7.42937 11.3495Z" fill="#017DB9"/>
</svg>
