<svg width="25" height="25" viewBox="0 0 25 25" fill="none" xmlns="http://www.w3.org/2000/svg">
<path d="M13.5416 13.5417H11.4583V7.29171H13.5416M13.5416 17.7084H11.4583V15.625H13.5416M12.4999 2.08337C11.132 2.08337 9.77744 2.35281 8.51363 2.8763C7.24982 3.39978 6.1015 4.16707 5.13422 5.13434C3.18072 7.08785 2.08325 9.73737 2.08325 12.5C2.08325 15.2627 3.18072 17.9122 5.13422 19.8657C6.1015 20.833 7.24982 21.6003 8.51363 22.1238C9.77744 22.6473 11.132 22.9167 12.4999 22.9167C15.2626 22.9167 17.9121 21.8192 19.8656 19.8657C21.8191 17.9122 22.9166 15.2627 22.9166 12.5C22.9166 11.1321 22.6471 9.77756 22.1237 8.51375C21.6002 7.24995 20.8329 6.10162 19.8656 5.13434C18.8983 4.16707 17.75 3.39978 16.4862 2.8763C15.2224 2.35281 13.8679 2.08337 12.4999 2.08337Z" fill="#FF0000"/>
</svg>
