<svg width="25" height="25" viewBox="0 0 25 25" fill="none" xmlns="http://www.w3.org/2000/svg">
<g id="gridicons:chat">
<path id="Vector" d="M3.12499 12.5C1.97916 12.5 1.04166 11.5625 1.04166 10.4167V5.20833C1.04166 4.0625 1.97916 3.125 3.12499 3.125H11.4583C12.6042 3.125 13.5417 4.0625 13.5417 5.20833V10.4167C13.5417 11.5625 12.6042 12.5 11.4583 12.5H9.37499V15.625L6.24999 12.5H3.12499ZM21.875 18.75C23.0208 18.75 23.9583 17.8125 23.9583 16.6667V11.4583C23.9583 10.3125 23.0208 9.375 21.875 9.375H15.625V10.4167C15.625 12.7083 13.75 14.5833 11.4583 14.5833V16.6667C11.4583 17.8125 12.3958 18.75 13.5417 18.75H15.625V21.875L18.75 18.75H21.875Z" fill="#02A8DF"/>
</g>
</svg>
