<svg width="60" height="60" viewBox="0 0 60 60" fill="none" xmlns="http://www.w3.org/2000/svg">
<rect width="60" height="60" fill="#F5F5F5"/>
<path d="M-8625 -949C-8625 -950.105 -8624.1 -951 -8623 -951H3007C3008.1 -951 3009 -950.105 3009 -949V3593C3009 3594.1 3008.1 3595 3007 3595H-8623C-8624.1 3595 -8625 3594.1 -8625 3593V-949Z" fill="#EFFBFF"/>
<path d="M-8623 -950H3007V-952H-8623V-950ZM3008 -949V3593H3010V-949H3008ZM3007 3594H-8623V3596H3007V3594ZM-8624 3593V-949H-8626V3593H-8624ZM-8623 3594C-8623.55 3594 -8624 3593.55 -8624 3593H-8626C-8626 3594.66 -8624.66 3596 -8623 3596V3594ZM3008 3593C3008 3593.55 3007.55 3594 3007 3594V3596C3008.66 3596 3010 3594.66 3010 3593H3008ZM3007 -950C3007.55 -950 3008 -949.552 3008 -949H3010C3010 -950.657 3008.66 -952 3007 -952V-950ZM-8623 -952C-8624.66 -952 -8626 -950.657 -8626 -949H-8624C-8624 -949.552 -8623.55 -950 -8623 -950V-952Z" fill="black" fill-opacity="0.1"/>
<g clip-path="url(#clip0_20_963)">
<rect width="1920" height="1156" transform="translate(-927 -449)" fill="white"/>
<rect x="-128.568" y="34.7476" width="305" height="46" rx="6.5" stroke="#D63333"/>
<rect x="-927" y="-449" width="1920" height="1896" fill="#5D5E5E" fill-opacity="0.2"/>
<rect x="-376" y="-141" width="818" height="541" rx="10" fill="white"/>
<rect x="-37" y="-25.0005" width="130" height="110" rx="9" fill="#E6F8FE"/>
<g clip-path="url(#clip1_20_963)">
<path d="M37.9688 2.81201V2.78409C37.9679 2.04584 37.6742 1.33807 37.1522 0.816048C36.6302 0.294025 35.9224 0.000373923 35.1842 -0.000488281L7.94083 -0.000488281C7.20258 0.000373923 6.49481 0.294025 5.97279 0.816048C5.45076 1.33807 5.15711 2.04584 5.15625 2.78409V57.2149C5.15711 57.9532 5.45076 58.661 5.97279 59.183C6.49481 59.705 7.20258 59.9986 7.94083 59.9995H35.1842C35.9224 59.9986 36.6302 59.705 37.1522 59.183C37.6742 58.661 37.9679 57.9532 37.9688 57.2149V28.2573L36.0938 29.2556V57.2149C36.0935 57.4561 35.9976 57.6873 35.8271 57.8579C35.6566 58.0284 35.4253 58.1243 35.1842 58.1245H7.94083C7.69966 58.1243 7.46843 58.0284 7.2979 57.8579C7.12737 57.6873 7.03147 57.4561 7.03125 57.2149V2.78409C7.03147 2.54292 7.12737 2.31169 7.2979 2.14116C7.46843 1.97063 7.69966 1.87473 7.94083 1.87451H35.1842C35.4253 1.87473 35.6566 1.97063 35.8271 2.14116C35.9976 2.31169 36.0935 2.54292 36.0938 2.78409V2.81201H37.9688Z" fill="#017DB9"/>
<path d="M10.3125 6.56201C11.0892 6.56201 11.7188 5.93241 11.7188 5.15576C11.7188 4.37911 11.0892 3.74951 10.3125 3.74951C9.53585 3.74951 8.90625 4.37911 8.90625 5.15576C8.90625 5.93241 9.53585 6.56201 10.3125 6.56201Z" fill="#017DB9"/>
<path d="M19.6875 55.312C19.4389 55.312 19.2004 55.4108 19.0246 55.5866C18.8488 55.7624 18.75 56.0009 18.75 56.2495C18.75 56.4982 18.8488 56.7366 19.0246 56.9124C19.2004 57.0882 19.4389 57.187 19.6875 57.187H23.4375C23.6861 57.187 23.9246 57.0882 24.1004 56.9124C24.2762 56.7366 24.375 56.4982 24.375 56.2495C24.375 56.0009 24.2762 55.7624 24.1004 55.5866C23.9246 55.4108 23.6861 55.312 23.4375 55.312H19.6875ZM32.3438 36.757V25.117C32.3433 24.6716 32.1662 24.2445 31.8512 23.9296C31.5362 23.6146 31.1092 23.4375 30.6637 23.437H12.4612C12.0158 23.4375 11.5888 23.6146 11.2738 23.9296C10.9588 24.2445 10.7817 24.6716 10.7812 25.117V36.757C10.7816 37.102 10.8889 37.4384 11.0884 37.7198C11.1292 37.7851 11.178 37.845 11.2335 37.8982L11.2393 37.9027C11.3954 38.0709 11.5844 38.2051 11.7947 38.297C12.0049 38.389 12.2318 38.4366 12.4612 38.437H30.6637C31.1092 38.4366 31.5362 38.2594 31.8512 37.9445C32.1662 37.6295 32.3433 37.2024 32.3438 36.757ZM26.9217 31.2998L25.3898 32.406L29.2735 36.562H13.7666L17.7042 32.3505L16.1842 31.2306L12.6562 35.0038V26.3026L20.4684 32.0581C20.7785 32.3051 21.1628 32.4406 21.5592 32.4426C21.9557 32.4446 22.3413 32.313 22.6538 32.0691L30.4688 26.4253V35.0955L26.9217 31.2998ZM14.4733 25.312H28.8081L21.5689 30.5397L14.4733 25.312Z" fill="#017DB9"/>
<path d="M44.6127 22.6085H52.337C53.1217 22.6119 53.8756 22.3038 54.4334 21.752C54.9912 21.2002 55.3074 20.4497 55.3125 19.6651V7.63046C55.3074 6.84584 54.9912 6.0953 54.4334 5.54349C53.8756 4.99168 53.1217 4.68367 52.337 4.68704H32.9755C32.1908 4.68367 31.4369 4.99168 30.8791 5.54349C30.3213 6.0953 30.0051 6.84584 30 7.63046V19.6651C30.0051 20.4497 30.3213 21.2002 30.8791 21.752C31.4369 22.3039 32.1908 22.6119 32.9755 22.6085H35.4602L33.1746 26.7325C33.0765 26.9093 33.0383 27.1131 33.0655 27.3135C33.0928 27.5138 33.1841 27.7 33.3259 27.8442C33.4676 27.9884 33.6522 28.0829 33.852 28.1137C34.0519 28.1444 34.2563 28.1097 34.4348 28.0147L44.567 22.6199C44.5811 22.6126 44.5968 22.6086 44.6127 22.6085ZM43.6871 20.9642L36.3501 24.8708L37.8717 22.1256C37.9509 21.9828 37.9914 21.8219 37.9893 21.6588C37.9872 21.4956 37.9425 21.3358 37.8597 21.1952C37.7769 21.0546 37.6588 20.938 37.5171 20.857C37.3754 20.7761 37.2151 20.7335 37.0519 20.7335H32.9755C32.688 20.7374 32.4106 20.6271 32.2043 20.4268C31.998 20.2265 31.8796 19.9526 31.875 19.6651V7.63046C31.8796 7.34296 31.998 7.06902 32.2043 6.86873C32.4106 6.66844 32.688 6.55814 32.9755 6.56204H52.337C52.6245 6.55815 52.9019 6.66844 53.1082 6.86873C53.3145 7.06903 53.4329 7.34296 53.4375 7.63046V19.6651C53.4329 19.9526 53.3145 20.2265 53.1082 20.4268C52.9019 20.6271 52.6245 20.7374 52.337 20.7335H44.6127C44.2904 20.7339 43.9729 20.8129 43.688 20.9638L43.6871 20.9642Z" fill="#017DB9"/>
<path d="M38.7609 12.3711C38.6275 12.1613 38.4164 12.0129 38.1738 11.9586C37.9312 11.9043 37.6769 11.9484 37.4668 12.0813L37.0315 12.3573V12.0996C37.0315 11.851 36.9327 11.6125 36.7569 11.4367C36.5811 11.2609 36.3426 11.1621 36.094 11.1621C35.8453 11.1621 35.6069 11.2609 35.4311 11.4367C35.2552 11.6125 35.1565 11.851 35.1565 12.0996V12.3573L34.7211 12.0813C34.5111 11.9481 34.2568 11.9038 34.0141 11.9582C33.7714 12.0125 33.5602 12.161 33.427 12.3711C33.2939 12.5811 33.2496 12.8354 33.3039 13.0781C33.3583 13.3208 33.5068 13.532 33.7168 13.6652L34.3428 14.062L33.7168 14.4589C33.5068 14.5921 33.3583 14.8033 33.3039 15.046C33.2496 15.2886 33.2939 15.543 33.427 15.753C33.5602 15.9631 33.7714 16.1116 34.0141 16.1659C34.2568 16.2203 34.5111 16.176 34.7211 16.0428L35.1565 15.7668V16.0245C35.1565 16.2731 35.2552 16.5116 35.4311 16.6874C35.6069 16.8632 35.8453 16.962 36.094 16.962C36.3426 16.962 36.5811 16.8632 36.7569 16.6874C36.9327 16.5116 37.0315 16.2731 37.0315 16.0245V15.7668L37.4668 16.0428C37.6768 16.176 37.9312 16.2203 38.1739 16.1659C38.4166 16.1116 38.6277 15.9631 38.7609 15.753C38.8941 15.543 38.9384 15.2886 38.884 15.046C38.8297 14.8033 38.6812 14.5921 38.4711 14.4589L37.8452 14.062L38.4711 13.6652C38.6811 13.5319 38.8295 13.3207 38.8838 13.0781C38.9382 12.8354 38.894 12.5811 38.7609 12.3711ZM45.3234 15.753C45.4565 15.543 45.5007 15.2887 45.4463 15.046C45.392 14.8034 45.2436 14.5922 45.0336 14.4589L44.4077 14.062L45.0336 13.6652C45.1376 13.5992 45.2276 13.5134 45.2985 13.4127C45.3693 13.312 45.4196 13.1983 45.4465 13.0781C45.4734 12.958 45.4764 12.8337 45.4553 12.7123C45.4342 12.591 45.3894 12.4751 45.3234 12.3711C45.2575 12.2671 45.1717 12.1771 45.071 12.1062C44.9702 12.0354 44.8565 11.9851 44.7364 11.9582C44.6162 11.9313 44.4919 11.9283 44.3706 11.9494C44.2493 11.9705 44.1333 12.0153 44.0293 12.0813L43.594 12.3573V12.0996C43.594 11.851 43.4952 11.6125 43.3194 11.4367C43.1436 11.2609 42.9051 11.1621 42.6565 11.1621C42.4078 11.1621 42.1694 11.2609 41.9936 11.4367C41.8177 11.6125 41.719 11.851 41.719 12.0996V12.3573L41.2836 12.0813C41.1796 12.0153 41.0637 11.9705 40.9424 11.9494C40.821 11.9283 40.6967 11.9313 40.5766 11.9582C40.4564 11.9851 40.3427 12.0354 40.242 12.1062C40.1413 12.1771 40.0555 12.2671 39.9895 12.3711C39.9236 12.4751 39.8788 12.591 39.8577 12.7123C39.8365 12.8337 39.8395 12.958 39.8664 13.0781C39.8933 13.1983 39.9436 13.312 40.0145 13.4127C40.0853 13.5134 40.1753 13.5992 40.2793 13.6652L40.9053 14.062L40.2793 14.4589C40.0693 14.5921 39.9208 14.8033 39.8664 15.046C39.8121 15.2886 39.8564 15.543 39.9895 15.753C40.1227 15.9631 40.3339 16.1116 40.5766 16.1659C40.8193 16.2203 41.0736 16.176 41.2836 16.0428L41.719 15.7668V16.0245C41.719 16.2731 41.8177 16.5116 41.9936 16.6874C42.1694 16.8632 42.4078 16.962 42.6565 16.962C42.9051 16.962 43.1436 16.8632 43.3194 16.6874C43.4952 16.5116 43.594 16.2731 43.594 16.0245V15.7668L44.0293 16.0428C44.2394 16.1758 44.4937 16.22 44.7363 16.1657C44.979 16.1114 45.1901 15.9629 45.3234 15.753ZM46.552 15.753C46.6853 15.9629 46.8965 16.1113 47.1391 16.1657C47.3818 16.22 47.6361 16.1758 47.8461 16.0428L48.2815 15.7668V16.0245C48.2815 16.2731 48.3802 16.5116 48.5561 16.6874C48.7319 16.8632 48.9703 16.962 49.219 16.962C49.4676 16.962 49.7061 16.8632 49.8819 16.6874C50.0577 16.5116 50.1565 16.2731 50.1565 16.0245V15.7668L50.5918 16.0428C50.8018 16.176 51.0562 16.2203 51.2989 16.1659C51.5416 16.1116 51.7527 15.9631 51.8859 15.753C52.0191 15.543 52.0634 15.2886 52.009 15.046C51.9547 14.8033 51.8062 14.5921 51.5961 14.4589L50.9702 14.062L51.5961 13.6652C51.8062 13.532 51.9547 13.3208 52.009 13.0781C52.0634 12.8354 52.0191 12.5811 51.8859 12.3711C51.7527 12.161 51.5416 12.0125 51.2989 11.9582C51.0562 11.9038 50.8018 11.9481 50.5918 12.0813L50.1565 12.3573V12.0996C50.1565 11.851 50.0577 11.6125 49.8819 11.4367C49.7061 11.2609 49.4676 11.1621 49.219 11.1621C48.9703 11.1621 48.7319 11.2609 48.5561 11.4367C48.3802 11.6125 48.2815 11.851 48.2815 12.0996V12.3573L47.8461 12.0813C47.7421 12.0153 47.6262 11.9705 47.5049 11.9494C47.3835 11.9283 47.2592 11.9313 47.1391 11.9582C47.0189 11.9851 46.9052 12.0354 46.8045 12.1062C46.7038 12.1771 46.618 12.2671 46.552 12.3711C46.4861 12.4751 46.4413 12.591 46.4202 12.7123C46.399 12.8337 46.402 12.958 46.4289 13.0781C46.4558 13.1983 46.5061 13.312 46.577 13.4127C46.6478 13.5134 46.7378 13.5992 46.8418 13.6652L47.4678 14.062L46.8418 14.4589C46.6319 14.5922 46.4834 14.8034 46.4291 15.046C46.3748 15.2887 46.419 15.543 46.552 15.753Z" fill="#017DB9"/>
</g>
<rect x="-376" y="-141" width="818" height="541" rx="10" fill="white"/>
<rect x="-37" y="-25.0005" width="130" height="110" rx="9" fill="#E6F8FE"/>
<g clip-path="url(#clip2_20_963)">
<path d="M37.9688 2.81201V2.78409C37.9679 2.04584 37.6742 1.33807 37.1522 0.816048C36.6302 0.294025 35.9224 0.000373923 35.1842 -0.000488281L7.94083 -0.000488281C7.20258 0.000373923 6.49481 0.294025 5.97279 0.816048C5.45076 1.33807 5.15711 2.04584 5.15625 2.78409V57.2149C5.15711 57.9532 5.45076 58.661 5.97279 59.183C6.49481 59.705 7.20258 59.9986 7.94083 59.9995H35.1842C35.9224 59.9986 36.6302 59.705 37.1522 59.183C37.6742 58.661 37.9679 57.9532 37.9688 57.2149V28.2573L36.0938 29.2556V57.2149C36.0935 57.4561 35.9976 57.6873 35.8271 57.8579C35.6566 58.0284 35.4253 58.1243 35.1842 58.1245H7.94083C7.69966 58.1243 7.46843 58.0284 7.2979 57.8579C7.12737 57.6873 7.03147 57.4561 7.03125 57.2149V2.78409C7.03147 2.54292 7.12737 2.31169 7.2979 2.14116C7.46843 1.97063 7.69966 1.87473 7.94083 1.87451H35.1842C35.4253 1.87473 35.6566 1.97063 35.8271 2.14116C35.9976 2.31169 36.0935 2.54292 36.0938 2.78409V2.81201H37.9688Z" fill="#017DB9"/>
<path d="M10.3125 6.56201C11.0892 6.56201 11.7188 5.93241 11.7188 5.15576C11.7188 4.37911 11.0892 3.74951 10.3125 3.74951C9.53585 3.74951 8.90625 4.37911 8.90625 5.15576C8.90625 5.93241 9.53585 6.56201 10.3125 6.56201Z" fill="#017DB9"/>
<path d="M19.6875 55.312C19.4389 55.312 19.2004 55.4108 19.0246 55.5866C18.8488 55.7624 18.75 56.0009 18.75 56.2495C18.75 56.4982 18.8488 56.7366 19.0246 56.9124C19.2004 57.0882 19.4389 57.187 19.6875 57.187H23.4375C23.6861 57.187 23.9246 57.0882 24.1004 56.9124C24.2762 56.7366 24.375 56.4982 24.375 56.2495C24.375 56.0009 24.2762 55.7624 24.1004 55.5866C23.9246 55.4108 23.6861 55.312 23.4375 55.312H19.6875ZM32.3438 36.757V25.117C32.3433 24.6716 32.1662 24.2445 31.8512 23.9296C31.5362 23.6146 31.1092 23.4375 30.6637 23.437H12.4612C12.0158 23.4375 11.5888 23.6146 11.2738 23.9296C10.9588 24.2445 10.7817 24.6716 10.7812 25.117V36.757C10.7816 37.102 10.8889 37.4384 11.0884 37.7198C11.1292 37.7851 11.178 37.845 11.2335 37.8982L11.2393 37.9027C11.3954 38.0709 11.5844 38.2051 11.7947 38.297C12.0049 38.389 12.2318 38.4366 12.4612 38.437H30.6637C31.1092 38.4366 31.5362 38.2594 31.8512 37.9445C32.1662 37.6295 32.3433 37.2024 32.3438 36.757ZM26.9217 31.2998L25.3898 32.406L29.2735 36.562H13.7666L17.7042 32.3505L16.1842 31.2306L12.6562 35.0038V26.3026L20.4684 32.0581C20.7785 32.3051 21.1628 32.4406 21.5592 32.4426C21.9557 32.4446 22.3413 32.313 22.6538 32.0691L30.4688 26.4253V35.0955L26.9217 31.2998ZM14.4733 25.312H28.8081L21.5689 30.5397L14.4733 25.312Z" fill="#017DB9"/>
<path d="M44.6127 22.6085H52.337C53.1217 22.6119 53.8756 22.3038 54.4334 21.752C54.9912 21.2002 55.3074 20.4497 55.3125 19.6651V7.63046C55.3074 6.84584 54.9912 6.0953 54.4334 5.54349C53.8756 4.99168 53.1217 4.68367 52.337 4.68704H32.9755C32.1908 4.68367 31.4369 4.99168 30.8791 5.54349C30.3213 6.0953 30.0051 6.84584 30 7.63046V19.6651C30.0051 20.4497 30.3213 21.2002 30.8791 21.752C31.4369 22.3039 32.1908 22.6119 32.9755 22.6085H35.4602L33.1746 26.7325C33.0765 26.9093 33.0383 27.1131 33.0655 27.3135C33.0928 27.5138 33.1841 27.7 33.3259 27.8442C33.4676 27.9884 33.6522 28.0829 33.852 28.1137C34.0519 28.1444 34.2563 28.1097 34.4348 28.0147L44.567 22.6199C44.5811 22.6126 44.5968 22.6086 44.6127 22.6085ZM43.6871 20.9642L36.3501 24.8708L37.8717 22.1256C37.9509 21.9828 37.9914 21.8219 37.9893 21.6588C37.9872 21.4956 37.9425 21.3358 37.8597 21.1952C37.7769 21.0546 37.6588 20.938 37.5171 20.857C37.3754 20.7761 37.2151 20.7335 37.0519 20.7335H32.9755C32.688 20.7374 32.4106 20.6271 32.2043 20.4268C31.998 20.2265 31.8796 19.9526 31.875 19.6651V7.63046C31.8796 7.34296 31.998 7.06902 32.2043 6.86873C32.4106 6.66844 32.688 6.55814 32.9755 6.56204H52.337C52.6245 6.55815 52.9019 6.66844 53.1082 6.86873C53.3145 7.06903 53.4329 7.34296 53.4375 7.63046V19.6651C53.4329 19.9526 53.3145 20.2265 53.1082 20.4268C52.9019 20.6271 52.6245 20.7374 52.337 20.7335H44.6127C44.2904 20.7339 43.9729 20.8129 43.688 20.9638L43.6871 20.9642Z" fill="#017DB9"/>
<path d="M38.7609 12.3711C38.6275 12.1613 38.4164 12.0129 38.1738 11.9586C37.9312 11.9043 37.6769 11.9484 37.4668 12.0813L37.0315 12.3573V12.0996C37.0315 11.851 36.9327 11.6125 36.7569 11.4367C36.5811 11.2609 36.3426 11.1621 36.094 11.1621C35.8453 11.1621 35.6069 11.2609 35.4311 11.4367C35.2552 11.6125 35.1565 11.851 35.1565 12.0996V12.3573L34.7211 12.0813C34.5111 11.9481 34.2568 11.9038 34.0141 11.9582C33.7714 12.0125 33.5602 12.161 33.427 12.3711C33.2939 12.5811 33.2496 12.8354 33.3039 13.0781C33.3583 13.3208 33.5068 13.532 33.7168 13.6652L34.3428 14.062L33.7168 14.4589C33.5068 14.5921 33.3583 14.8033 33.3039 15.046C33.2496 15.2886 33.2939 15.543 33.427 15.753C33.5602 15.9631 33.7714 16.1116 34.0141 16.1659C34.2568 16.2203 34.5111 16.176 34.7211 16.0428L35.1565 15.7668V16.0245C35.1565 16.2731 35.2552 16.5116 35.4311 16.6874C35.6069 16.8632 35.8453 16.962 36.094 16.962C36.3426 16.962 36.5811 16.8632 36.7569 16.6874C36.9327 16.5116 37.0315 16.2731 37.0315 16.0245V15.7668L37.4668 16.0428C37.6768 16.176 37.9312 16.2203 38.1739 16.1659C38.4166 16.1116 38.6277 15.9631 38.7609 15.753C38.8941 15.543 38.9384 15.2886 38.884 15.046C38.8297 14.8033 38.6812 14.5921 38.4711 14.4589L37.8452 14.062L38.4711 13.6652C38.6811 13.5319 38.8295 13.3207 38.8838 13.0781C38.9382 12.8354 38.894 12.5811 38.7609 12.3711ZM45.3234 15.753C45.4565 15.543 45.5007 15.2887 45.4463 15.046C45.392 14.8034 45.2436 14.5922 45.0336 14.4589L44.4077 14.062L45.0336 13.6652C45.1376 13.5992 45.2276 13.5134 45.2985 13.4127C45.3693 13.312 45.4196 13.1983 45.4465 13.0781C45.4734 12.958 45.4764 12.8337 45.4553 12.7123C45.4342 12.591 45.3894 12.4751 45.3234 12.3711C45.2575 12.2671 45.1717 12.1771 45.071 12.1062C44.9702 12.0354 44.8565 11.9851 44.7364 11.9582C44.6162 11.9313 44.4919 11.9283 44.3706 11.9494C44.2493 11.9705 44.1333 12.0153 44.0293 12.0813L43.594 12.3573V12.0996C43.594 11.851 43.4952 11.6125 43.3194 11.4367C43.1436 11.2609 42.9051 11.1621 42.6565 11.1621C42.4078 11.1621 42.1694 11.2609 41.9936 11.4367C41.8177 11.6125 41.719 11.851 41.719 12.0996V12.3573L41.2836 12.0813C41.1796 12.0153 41.0637 11.9705 40.9424 11.9494C40.821 11.9283 40.6967 11.9313 40.5766 11.9582C40.4564 11.9851 40.3427 12.0354 40.242 12.1062C40.1413 12.1771 40.0555 12.2671 39.9895 12.3711C39.9236 12.4751 39.8788 12.591 39.8577 12.7123C39.8365 12.8337 39.8395 12.958 39.8664 13.0781C39.8933 13.1983 39.9436 13.312 40.0145 13.4127C40.0853 13.5134 40.1753 13.5992 40.2793 13.6652L40.9053 14.062L40.2793 14.4589C40.0693 14.5921 39.9208 14.8033 39.8664 15.046C39.8121 15.2886 39.8564 15.543 39.9895 15.753C40.1227 15.9631 40.3339 16.1116 40.5766 16.1659C40.8193 16.2203 41.0736 16.176 41.2836 16.0428L41.719 15.7668V16.0245C41.719 16.2731 41.8177 16.5116 41.9936 16.6874C42.1694 16.8632 42.4078 16.962 42.6565 16.962C42.9051 16.962 43.1436 16.8632 43.3194 16.6874C43.4952 16.5116 43.594 16.2731 43.594 16.0245V15.7668L44.0293 16.0428C44.2394 16.1758 44.4937 16.22 44.7363 16.1657C44.979 16.1114 45.1901 15.9629 45.3234 15.753ZM46.552 15.753C46.6853 15.9629 46.8965 16.1113 47.1391 16.1657C47.3818 16.22 47.6361 16.1758 47.8461 16.0428L48.2815 15.7668V16.0245C48.2815 16.2731 48.3802 16.5116 48.5561 16.6874C48.7319 16.8632 48.9703 16.962 49.219 16.962C49.4676 16.962 49.7061 16.8632 49.8819 16.6874C50.0577 16.5116 50.1565 16.2731 50.1565 16.0245V15.7668L50.5918 16.0428C50.8018 16.176 51.0562 16.2203 51.2989 16.1659C51.5416 16.1116 51.7527 15.9631 51.8859 15.753C52.0191 15.543 52.0634 15.2886 52.009 15.046C51.9547 14.8033 51.8062 14.5921 51.5961 14.4589L50.9702 14.062L51.5961 13.6652C51.8062 13.532 51.9547 13.3208 52.009 13.0781C52.0634 12.8354 52.0191 12.5811 51.8859 12.3711C51.7527 12.161 51.5416 12.0125 51.2989 11.9582C51.0562 11.9038 50.8018 11.9481 50.5918 12.0813L50.1565 12.3573V12.0996C50.1565 11.851 50.0577 11.6125 49.8819 11.4367C49.7061 11.2609 49.4676 11.1621 49.219 11.1621C48.9703 11.1621 48.7319 11.2609 48.5561 11.4367C48.3802 11.6125 48.2815 11.851 48.2815 12.0996V12.3573L47.8461 12.0813C47.7421 12.0153 47.6262 11.9705 47.5049 11.9494C47.3835 11.9283 47.2592 11.9313 47.1391 11.9582C47.0189 11.9851 46.9052 12.0354 46.8045 12.1062C46.7038 12.1771 46.618 12.2671 46.552 12.3711C46.4861 12.4751 46.4413 12.591 46.4202 12.7123C46.399 12.8337 46.402 12.958 46.4289 13.0781C46.4558 13.1983 46.5061 13.312 46.577 13.4127C46.6478 13.5134 46.7378 13.5992 46.8418 13.6652L47.4678 14.062L46.8418 14.4589C46.6319 14.5922 46.4834 14.8034 46.4291 15.046C46.3748 15.2887 46.419 15.543 46.552 15.753Z" fill="#017DB9"/>
</g>
</g>
<defs>
<clipPath id="clip0_20_963">
<rect width="1920" height="1156" fill="white" transform="translate(-927 -449)"/>
</clipPath>
<clipPath id="clip1_20_963">
<rect width="60" height="60" fill="white" transform="translate(0 -0.000488281)"/>
</clipPath>
<clipPath id="clip2_20_963">
<rect width="60" height="60" fill="white" transform="translate(0 -0.000488281)"/>
</clipPath>
</defs>
</svg>
