<svg xmlns="http://www.w3.org/2000/svg" height="24" viewBox="0 96 960 960" width="24"><path d="M621.539 846.769q11.616 0 20.039-8.423 8.423-8.423 8.423-20.038t-8.423-20.039q-8.423-8.423-20.039-8.423-11.615 0-20.038 8.423-8.423 8.424-8.423 20.039 0 11.615 8.423 20.038t20.038 8.423Zm98.461 0q11.615 0 20.038-8.423t8.423-20.038q0-11.615-8.423-20.039-8.423-8.423-20.038-8.423t-20.038 8.423q-8.423 8.424-8.423 20.039 0 11.615 8.423 20.038T720 846.769Zm98.461 0q11.615 0 20.038-8.423t8.423-20.038q0-11.615-8.423-20.039-8.423-8.423-20.038-8.423-11.616 0-20.039 8.423-8.423 8.424-8.423 20.039 0 11.615 8.423 20.038t20.039 8.423Zm-606.152 69.23q-29.923 0-51.115-21.193-21.193-21.192-21.193-51.115V308.309q0-29.923 21.193-51.115 21.192-21.193 51.115-21.193h535.382q29.923 0 51.115 21.193 21.193 21.192 21.193 51.115v252.998Q805.23 555 790.422 550.616q-14.807-4.385-30.422-7V308.309q0-4.616-3.846-8.463-3.847-3.846-8.463-3.846H212.309q-4.616 0-8.463 3.846-3.846 3.847-3.846 8.463v535.382q0 4.616 3.846 8.463 3.847 3.846 8.463 3.846h234.307q2.23 16.615 6.615 31.422 4.384 14.808 10.692 28.577H212.309ZM200 816v40V296 543.616v-3V816Zm90.001-54.616h160.692q2.615-15.615 7.769-30.423 5.154-14.807 11.231-29.576H290.001v59.999Zm0-155.385h253.616q25.846-21.922 55.152-36.73 29.307-14.807 62.768-21.038v-2.23H290.001v59.998Zm0-155.384h379.998v-59.999H290.001v59.999ZM720 998.306q-74.922 0-127.461-52.538-52.538-52.538-52.538-127.46 0-74.923 52.538-127.461Q645.078 638.309 720 638.309t127.461 52.538q52.538 52.538 52.538 127.461 0 74.922-52.538 127.46Q794.922 998.306 720 998.306Z"/></svg>       