<svg width="11" height="10" viewBox="0 0 13 12" fill="none" xmlns="http://www.w3.org/2000/svg">
<path d="M11.3942 11.3115C10.0873 11.3115 8.79615 11.0267 7.52067 10.4571C6.24518 9.88755 5.0847 9.07981 4.03922 8.03391C2.99375 6.98844 2.18622 5.82796 1.61664 4.55247C1.04707 3.27699 0.762068 1.98582 0.76165 0.678976C0.76165 0.49079 0.824379 0.333968 0.949836 0.208511C1.07529 0.0830534 1.23212 0.0203247 1.4203 0.0203247H3.96081C4.10718 0.0203247 4.23787 0.0700894 4.35287 0.169619C4.46787 0.269148 4.53583 0.38666 4.55674 0.522154L4.96447 2.71766C4.98538 2.88494 4.98015 3.02607 4.94879 3.14108C4.91743 3.25608 4.85992 3.3554 4.77629 3.43904L3.25512 4.97589C3.46421 5.36272 3.71241 5.73637 3.9997 6.09685C4.287 6.45733 4.60336 6.80506 4.94879 7.14003C5.27289 7.46413 5.61267 7.76481 5.96813 8.04207C6.32359 8.31933 6.69997 8.57275 7.09725 8.80234L8.57137 7.32822C8.66546 7.23412 8.78841 7.16366 8.94022 7.11682C9.09202 7.06998 9.2409 7.05681 9.38684 7.0773L11.551 7.5164C11.6974 7.55822 11.8176 7.63412 11.9117 7.74411C12.0058 7.85409 12.0528 7.97683 12.0528 8.11233V10.6528C12.0528 10.841 11.9901 10.9978 11.8646 11.1233C11.7392 11.2488 11.5823 11.3115 11.3942 11.3115Z" fill="white"/>
</svg>
