<?xml version="1.0" encoding="utf-8"?>
<!-- Generator: Adobe Illustrator 23.1.0, SVG Export Plug-In . SVG Version: 6.00 Build 0)  -->
<svg version="1.1" id="Layer_1" xmlns="http://www.w3.org/2000/svg" xmlns:xlink="http://www.w3.org/1999/xlink" x="0px" y="0px"
	 viewBox="0 0 35 35" style="enable-background:new 0 0 35 35;" xml:space="preserve">
<style type="text/css">
	.st0{fill:#333333;}
</style>
<path class="st0" d="M19.09,34c-0.85,0-1.71,0-2.56,0c-0.02-0.02-0.04-0.06-0.06-0.06c-0.59-0.01-1.17-0.18-1.75-0.24
	c-0.41-0.1-0.82-0.2-1.24-0.3c-0.25-0.07-0.51-0.15-0.76-0.22c-0.58-0.24-1.16-0.48-1.74-0.72c-0.84-0.41-1.64-0.9-2.41-1.41
	c-0.14-0.1-0.27-0.2-0.41-0.3c-0.31-0.25-0.62-0.51-0.93-0.76c-0.17-0.16-0.34-0.32-0.51-0.49c-0.25-0.25-0.49-0.5-0.74-0.76
	c-0.13-0.18-0.27-0.35-0.43-0.5c-0.24-0.32-0.48-0.63-0.72-0.95c-0.08-0.13-0.15-0.27-0.27-0.37c-0.01-0.08-0.05-0.14-0.12-0.19
	C4.28,26.55,4.25,26.28,4,26.17l-0.01-0.01c0.06-0.03,0.05-0.08,0.02-0.13c-0.22-0.4-0.44-0.81-0.66-1.21c0-0.05-0.01-0.1-0.06-0.13
	c-0.01-0.1-0.05-0.19-0.12-0.27c-0.15-0.39-0.3-0.78-0.46-1.17c-0.25-0.82-0.48-1.65-0.63-2.5c-0.06-0.42-0.12-0.83-0.18-1.25
	c-0.02-0.42-0.04-0.83-0.06-1.25c0.01-0.42,0.01-0.83,0.02-1.25c0.04-0.42,0.08-0.83,0.13-1.25c0.08-0.42,0.15-0.84,0.23-1.26
	c0.06-0.1,0.08-0.2,0.07-0.31c0.1-0.31,0.2-0.62,0.26-0.94c0.15-0.41,0.3-0.83,0.45-1.24c0.37-0.87,0.8-1.7,1.28-2.51
	c0.15-0.23,0.3-0.45,0.45-0.68c0.15-0.2,0.3-0.41,0.45-0.61c0.97-1.2,2.06-2.27,3.3-3.19C8.68,4.87,8.89,4.73,9.1,4.58
	C9.31,4.45,9.52,4.33,9.72,4.2c0.42-0.23,0.86-0.42,1.25-0.69c0.12-0.01,0.23-0.04,0.31-0.13C11.6,3.26,11.91,3.13,12.22,3
	c0.42-0.13,0.84-0.27,1.26-0.4c0.41-0.1,0.83-0.2,1.24-0.3c0.48-0.07,0.96-0.13,1.44-0.21c0.17-0.03,0.35,0.04,0.5-0.08
	c0.75,0,1.5,0,2.25,0c0.01,0.05,0.05,0.06,0.09,0.06c0.64,0.01,1.27,0.14,1.91,0.23c0.43,0.1,0.87,0.21,1.3,0.31
	c0.42,0.13,0.84,0.27,1.26,0.4c0.21,0.12,0.43,0.2,0.66,0.26c0.61,0.31,1.22,0.62,1.84,0.94c0.17,0.1,0.33,0.2,0.5,0.31
	c0.25,0.17,0.5,0.34,0.75,0.51c0.31,0.25,0.63,0.5,0.94,0.76c0.94,0.77,1.73,1.67,2.49,2.61c0.09,0.16,0.18,0.31,0.31,0.43
	c0.15,0.23,0.3,0.45,0.45,0.68c0.48,0.81,0.91,1.65,1.28,2.51c0.15,0.41,0.3,0.83,0.45,1.24c0.06,0.32,0.15,0.63,0.26,0.94
	c-0.01,0.11,0.02,0.22,0.07,0.31c0.08,0.42,0.15,0.84,0.23,1.26c0.04,0.42,0.08,0.83,0.13,1.25c0.01,0.42,0.01,0.83,0.02,1.25
	c-0.02,0.42-0.04,0.83-0.06,1.25c-0.06,0.42-0.12,0.83-0.18,1.25c-0.15,0.85-0.38,1.68-0.64,2.5c-0.17,0.42-0.33,0.83-0.5,1.25
	c-0.04,0.08-0.08,0.16-0.11,0.24c-0.01,0.02-0.02,0.05-0.02,0.07c-0.38,0.71-0.77,1.42-1.19,2.11c-0.08,0.07-0.15,0.16-0.19,0.26
	c-0.27,0.36-0.54,0.71-0.81,1.07c-0.17,0.15-0.31,0.32-0.43,0.5c-0.25,0.25-0.49,0.5-0.74,0.76c-0.17,0.16-0.34,0.32-0.52,0.48
	c-0.28,0.23-0.55,0.46-0.83,0.69c-0.14,0.1-0.28,0.21-0.42,0.31c-0.42,0.27-0.83,0.54-1.25,0.82c-0.11,0.03-0.21,0.09-0.3,0.17
	c-0.32,0.16-0.64,0.32-0.95,0.49c-0.82,0.36-1.65,0.69-2.51,0.94c-0.39,0.1-0.78,0.2-1.17,0.29c-0.39,0.06-0.79,0.11-1.18,0.18
	C19.6,33.91,19.33,33.89,19.09,34z M3.15,18.25c-0.01,0.42-0.01,0.84,0.07,1.25c0.06,0.86,0.22,1.69,0.48,2.51
	c0.09,0.43,0.23,0.84,0.41,1.24c0.31,0.88,0.72,1.72,1.24,2.5c0.17,0.33,0.37,0.63,0.61,0.91c0.08,0.16,0.19,0.3,0.32,0.42
	c0.28,0.39,0.58,0.75,0.94,1.08c0.03,0.03,0.06,0.07,0.09,0.1c0.46,0.57,0.46,0.57,1.06,0.21c0.11-0.06,0.21-0.13,0.31-0.2
	c0.35-0.17,0.7-0.34,1.04-0.51c0.84-0.34,1.67-0.69,2.51-1.03c0.44-0.17,0.87-0.36,1.25-0.63c0.14-0.07,0.27-0.15,0.37-0.27
	c0.44-0.34,0.84-0.71,0.86-1.32c0.08-0.41,0.07-0.83,0.06-1.25c0-0.34,0.01-0.68,0-1.03c0-0.09,0.03-0.19-0.1-0.23
	c-0.06-0.06-0.13-0.12-0.19-0.19c-0.13-0.18-0.26-0.37-0.39-0.55c-0.01-0.02-0.02-0.04-0.02-0.06c-0.18-0.4-0.36-0.79-0.54-1.19
	c-0.05-0.2-0.11-0.41-0.16-0.61c0-0.28-0.05-0.51-0.39-0.6c-0.16-0.04-0.27-0.21-0.37-0.35c-0.15-0.21-0.21-0.46-0.32-0.69
	c-0.04-0.25-0.09-0.5-0.13-0.75c0-0.28,0.07-0.54,0.14-0.81c0.12-0.15,0.24-0.29,0.36-0.44c-0.18-0.83-0.35-1.66-0.45-2.5
	c-0.02-0.42-0.04-0.83-0.05-1.25c0.04-0.42,0.08-0.83,0.12-1.25c0-0.04,0.01-0.08,0.01-0.12c0.12-0.37,0.23-0.74,0.35-1.11
	c0.23-0.46,0.5-0.88,0.84-1.27c0.57-0.55,1.25-0.93,2-1.19c0.17-0.04,0.33-0.09,0.5-0.13c0.42-0.06,0.83-0.12,1.25-0.18
	c0.42,0,0.83,0,1.25,0c0.39,0.09,0.78,0.17,1.17,0.26c0.39,0.2,0.78,0.39,1.02,0.78c0.07,0.11,0.19,0.1,0.31,0.1
	c0.72,0.19,1.38,0.49,1.85,1.1c0.28,0.37,0.46,0.78,0.63,1.2c0.01,0.06,0.02,0.13,0.04,0.19c0.02,0.06,0.04,0.13,0.05,0.19
	c-0.01,0.07-0.01,0.13,0.05,0.19c0.03,0.42,0.06,0.83,0.09,1.25c-0.02,0.42-0.05,0.83-0.07,1.25c-0.15,0.84-0.33,1.68-0.56,2.5
	c0.12,0.17,0.24,0.33,0.37,0.5c0.07,0.24,0.12,0.49,0.13,0.75c-0.04,0.25-0.08,0.5-0.13,0.75c-0.01,0.02-0.03,0.03-0.04,0.05
	c-0.15,0.48-0.34,0.94-0.9,1.1c-0.1,0.03-0.11,0.12-0.12,0.2c-0.02,0.13-0.04,0.27-0.06,0.4c-0.05,0.19-0.1,0.37-0.15,0.56
	c-0.09,0.23-0.19,0.46-0.28,0.69c-0.23,0.45-0.46,0.89-0.83,1.25c-0.08,0.02-0.07,0.09-0.07,0.15c0,0.37,0,0.73,0.01,1.1
	c-0.04,0.42,0,0.84,0.03,1.25c0.05,0.55,0.38,0.92,0.78,1.25c0.5,0.44,1.07,0.73,1.69,0.96c0.78,0.37,1.58,0.66,2.38,0.98
	c0.49,0.26,1.01,0.47,1.48,0.76c0.58,0.36,0.59,0.36,1.05-0.17c0.01-0.01,0.01-0.02,0.01-0.03c0.06-0.06,0.11-0.12,0.17-0.18
	c0.32-0.31,0.61-0.63,0.86-1c0.15-0.15,0.28-0.32,0.38-0.51c0.22-0.25,0.4-0.53,0.55-0.82c0.52-0.78,0.93-1.62,1.24-2.5
	c0.17-0.4,0.32-0.81,0.41-1.24c0.26-0.82,0.42-1.65,0.48-2.51c0.08-0.41,0.08-0.83,0.07-1.25c0.06-0.42,0-0.84-0.02-1.25
	c-0.03-0.59-0.08-1.18-0.24-1.75c0-0.27-0.09-0.51-0.15-0.76c-0.08-0.42-0.21-0.83-0.36-1.24c-0.19-0.61-0.42-1.2-0.74-1.75
	c-0.09-0.27-0.23-0.51-0.39-0.75c-0.66-1.22-1.51-2.29-2.49-3.26c-0.69-0.68-1.42-1.31-2.26-1.79l0-0.01
	c-0.36-0.28-0.75-0.5-1.16-0.69c-0.76-0.43-1.57-0.77-2.41-1.01c-0.43-0.17-0.88-0.28-1.34-0.36c-0.41-0.11-0.82-0.19-1.24-0.21
	c-0.42-0.08-0.83-0.12-1.26-0.1c-0.42-0.05-0.83-0.05-1.25,0c-0.42-0.01-0.84,0.02-1.26,0.11c-0.42,0.01-0.84,0.1-1.24,0.21
	c-0.46,0.07-0.9,0.19-1.34,0.36C12.54,4.23,11.73,4.57,10.97,5c-0.64,0.3-1.23,0.69-1.8,1.11C7.9,7.04,6.79,8.13,5.9,9.42
	c-0.31,0.4-0.59,0.81-0.81,1.26c-0.02,0.04-0.05,0.08-0.07,0.12c-0.13,0.18-0.24,0.38-0.31,0.6c-0.34,0.58-0.58,1.21-0.79,1.84
	c-0.16,0.4-0.27,0.82-0.36,1.24c-0.06,0.25-0.15,0.5-0.15,0.76C3.25,15.82,3.2,16.41,3.17,17C3.15,17.42,3.09,17.83,3.15,18.25z"/>
</svg>
