<svg width="139" height="139" viewBox="0 0 139 139" fill="none" xmlns="http://www.w3.org/2000/svg">
<path d="M76.375 76.375H62.625V35.125H76.375M76.375 103.875H62.625V90.125H76.375M69.5 0.75C60.4716 0.75 51.5316 2.52827 43.1905 5.98328C34.8494 9.43829 27.2704 14.5024 20.8864 20.8864C7.99328 33.7795 0.75 51.2664 0.75 69.5C0.75 87.7336 7.99328 105.22 20.8864 118.114C27.2704 124.498 34.8494 129.562 43.1905 133.017C51.5316 136.472 60.4716 138.25 69.5 138.25C87.7336 138.25 105.22 131.007 118.114 118.114C131.007 105.22 138.25 87.7336 138.25 69.5C138.25 60.4716 136.472 51.5316 133.017 43.1905C129.562 34.8494 124.498 27.2704 118.114 20.8864C111.73 14.5024 104.151 9.43829 95.8095 5.98328C87.4684 2.52827 78.5284 0.75 69.5 0.75Z" fill="#FF0000"/>
</svg>
