<svg id="Layer_1" data-name="Layer 1" xmlns="http://www.w3.org/2000/svg" viewBox="0 0 30 30"><defs><style>.cls-1{fill:#333;}</style></defs><title>upload image</title><path class="cls-1" d="M27.79,22.58c-.1.11-.09.26-.14.39a2.87,2.87,0,0,1-2.87,2H5.29a2.91,2.91,0,0,1-2.76-1.66A2.86,2.86,0,0,1,2.26,22c0-3,0-5.91,0-8.87v-3a2.89,2.89,0,0,1,3-3c1.23,0,2.46,0,3.69,0,.11,0,.23,0,.23-.16a2.24,2.24,0,0,1,2.32-2.12h7.13a2.19,2.19,0,0,1,2.23,1.7.32.32,0,0,1,0,.09c0,.16,0,.37.08.45s.33,0,.51,0h3.39a2.86,2.86,0,0,1,2.91,2.38s0,0,.05,0ZM15,23.72H24.7a2.15,2.15,0,0,0,.62-.07,1.61,1.61,0,0,0,1.2-1.73q0-5.87,0-11.74a2,2,0,0,0-.07-.54,1.56,1.56,0,0,0-1.6-1.16H20.33a.66.66,0,0,1-.72-.71c0-.23,0-.46,0-.7a.87.87,0,0,0-.85-.87q-3.74,0-7.45,0a.84.84,0,0,0-.83.81c0,.22,0,.45,0,.67,0,.56-.25.81-.8.81H5.25a1.68,1.68,0,0,0-.82.17,1.59,1.59,0,0,0-.88,1.54c0,3.93,0,7.86,0,11.79,0,.09,0,.19,0,.28a1.53,1.53,0,0,0,.31.82,1.67,1.67,0,0,0,1.42.64Z"/><path class="cls-1" d="M15,10.12a6,6,0,1,1-6,6A6,6,0,0,1,15,10.12Zm4.66,6A4.66,4.66,0,1,0,15,20.78,4.66,4.66,0,0,0,19.68,16.13Z"/><path class="cls-1" d="M23.65,12.47a1.18,1.18,0,1,1,1.2-1.17A1.18,1.18,0,0,1,23.65,12.47Z"/></svg>